<?xml version="1.0" encoding="UTF-8" standalone="no"?>
<!-- Created with Inkscape (http://www.inkscape.org/) -->

<svg
   xmlns:dc="http://purl.org/dc/elements/1.1/"
   xmlns:cc="http://creativecommons.org/ns#"
   xmlns:rdf="http://www.w3.org/1999/02/22-rdf-syntax-ns#"
   xmlns:svg="http://www.w3.org/2000/svg"
   xmlns="http://www.w3.org/2000/svg"
   xmlns:sodipodi="http://sodipodi.sourceforge.net/DTD/sodipodi-0.dtd"
   xmlns:inkscape="http://www.inkscape.org/namespaces/inkscape"
   sodipodi:docname="box.svg"
   inkscape:version="0.92.1 unknown"
   id="svg4608"
   version="1.1"
   viewBox="0 0 15.874999 13.229167"
   height="50"
   width="60">
  <sodipodi:namedview
     inkscape:snap-midpoints="true"
     inkscape:window-maximized="1"
     inkscape:window-y="0"
     inkscape:window-x="52"
     inkscape:window-height="868"
     inkscape:window-width="1548"
     inkscape:snap-intersection-paths="true"
     units="px"
     showgrid="false"
     inkscape:current-layer="layer1"
     inkscape:document-units="px"
     inkscape:cy="-17.05102"
     inkscape:cx="33.858568"
     inkscape:zoom="4"
     inkscape:pageshadow="2"
     inkscape:pageopacity="0.0"
     borderopacity="1.0"
     bordercolor="#666666"
     pagecolor="#ffffff"
     id="base"
     showborder="true" />
  <defs
     id="defs4602">
    <inkscape:perspective
       sodipodi:type="inkscape:persp3d"
       inkscape:vp_x="6.842158 : 43.281869 : 1"
       inkscape:vp_y="0 : 3779.5275 : 0"
       inkscape:vp_z="44.655108 : 43.921641 : 1"
       inkscape:persp3d-origin="28.493944 : 37.67175 : 1"
       id="perspective5461" />
    <inkscape:perspective
       id="perspective5153"
       inkscape:persp3d-origin="-4.1831053 : 11.859861 : 1"
       inkscape:vp_z="0.092869424 : 13.513478 : 1"
       inkscape:vp_y="0 : 1000 : 0"
       inkscape:vp_x="-9.9118066 : 13.344205 : 1"
       sodipodi:type="inkscape:persp3d" />
  </defs>
  <metadata
     id="metadata4605">
    <rdf:RDF>
      <cc:Work
         rdf:about="">
        <dc:format>image/svg+xml</dc:format>
        <dc:type
           rdf:resource="http://purl.org/dc/dcmitype/StillImage" />
        <dc:title></dc:title>
      </cc:Work>
    </rdf:RDF>
  </metadata>
  <g
     transform="translate(0,-283.77081)"
     id="layer1"
     inkscape:groupmode="layer"
     inkscape:label="Layer 1">
    <path
       style="fill:#e1e1e1;fill-opacity:1;fill-rule:evenodd;stroke:none;stroke-width:3.40260124px;stroke-linecap:butt;stroke-linejoin:miter;stroke-opacity:1"
       d="m 8.2330564,283.77081 -6.6486776,1.16028 5.3206026,2.57255 7.3779286,-1.57826 z m -6.8775315,1.89251 1.2770861,4.06071 a 0.22769277,0.22769277 0 0 1 0.013636,0.0427 v 0.002 l 0.517594,1.64469 1.051195,0.68537 0.4790541,-0.85376 a 0.22769277,0.22769277 0 0 1 0.027275,-0.0492 0.22769277,0.22769277 0 0 1 0.00237,-0.005 l 1.7264976,-3.06466 z m -0.43340479,0.13814 -0.011857,6.48208 1.26759969,-2.48363 z m 14.04261689,0.75594 -7.7307027,1.6512 -0.015414,8.79138 7.7461167,-2.39766 z m -8.4896027,2.45634 -1.3215516,2.3437 1.3091025,3.92257 z m -4.1022098,1.40456 -1.2462566,2.44271 a 0.22769277,0.22769277 0 0 1 -0.024309,0.0403 l 5.3573608,3.93917 v -0.13518 l -1.6061421,-4.8125 -0.48202,0.85376 -1.5954689,-1.0417 z"
       id="path5459"
       inkscape:connector-curvature="0" />
  </g>
</svg>
