<?xml version="1.0" encoding="UTF-8" standalone="no"?>
<!-- Created with Inkscape (http://www.inkscape.org/) -->

<svg
   xmlns:dc="http://purl.org/dc/elements/1.1/"
   xmlns:cc="http://creativecommons.org/ns#"
   xmlns:rdf="http://www.w3.org/1999/02/22-rdf-syntax-ns#"
   xmlns:svg="http://www.w3.org/2000/svg"
   xmlns="http://www.w3.org/2000/svg"
   xmlns:sodipodi="http://sodipodi.sourceforge.net/DTD/sodipodi-0.dtd"
   xmlns:inkscape="http://www.inkscape.org/namespaces/inkscape"
   width="50"
   height="50"
   viewBox="0 0 13.229166 13.229167"
   version="1.1"
   id="svg8"
   inkscape:version="0.92.1 unknown"
   sodipodi:docname="calculator.svg">
  <defs
     id="defs2" />
  <sodipodi:namedview
     id="base"
     pagecolor="#ffffff"
     bordercolor="#666666"
     borderopacity="1.0"
     inkscape:pageopacity="0.0"
     inkscape:pageshadow="2"
     inkscape:zoom="7.9195959"
     inkscape:cx="21.343783"
     inkscape:cy="25.240376"
     inkscape:document-units="px"
     inkscape:current-layer="layer1"
     showgrid="false"
     units="px"
     inkscape:window-width="1548"
     inkscape:window-height="868"
     inkscape:window-x="52"
     inkscape:window-y="0"
     inkscape:window-maximized="1" />
  <metadata
     id="metadata5">
    <rdf:RDF>
      <cc:Work
         rdf:about="">
        <dc:format>image/svg+xml</dc:format>
        <dc:type
           rdf:resource="http://purl.org/dc/dcmitype/StillImage" />
        <dc:title></dc:title>
      </cc:Work>
    </rdf:RDF>
  </metadata>
  <g
     inkscape:label="Layer 1"
     inkscape:groupmode="layer"
     id="layer1"
     transform="translate(0,-283.77082)">
    <path
       style="color:#000000;clip-rule:nonzero;display:inline;overflow:visible;visibility:visible;opacity:1;isolation:auto;mix-blend-mode:normal;color-interpolation:sRGB;color-interpolation-filters:linearRGB;solid-color:#000000;solid-opacity:1;vector-effect:none;fill:#e1e1e1;fill-opacity:1;fill-rule:nonzero;stroke:none;stroke-width:0.06237269;stroke-linecap:round;stroke-linejoin:round;stroke-miterlimit:4;stroke-dasharray:none;stroke-dashoffset:0;stroke-opacity:1;marker:none;paint-order:stroke fill markers;color-rendering:auto;image-rendering:auto;shape-rendering:auto;text-rendering:auto;enable-background:accumulate"
       d="m 2.4619002,283.77082 c -0.492978,0 -0.889817,0.39692 -0.889817,0.8899 v 11.44945 c 0,0.49298 0.396839,0.88982 0.889817,0.88982 h 8.3052848 c 0.492978,0 0.889898,-0.39684 0.889898,-0.88982 v -11.44945 c 0,-0.49298 -0.39692,-0.8899 -0.889898,-0.8899 z m -0.03658,1.01326 h 8.3785238 v 2.26433 H 2.4253202 Z m 0.271139,3.16882 h 1.040675 c 0.150221,0 0.271138,0.12092 0.271138,0.27114 v 1.04068 c 0,0.15022 -0.120917,0.27114 -0.271138,0.27114 h -1.040674 c -0.150222,0 -0.271139,-0.12092 -0.271139,-0.27114 v -1.04068 c 0,-0.15022 0.120917,-0.27114 0.271138,-0.27114 z m 2.265217,0 h 1.040594 c 0.150221,0 0.271219,0.12092 0.271219,0.27114 v 1.04068 c 0,0.15022 -0.120998,0.27114 -0.271219,0.27114 h -1.040594 c -0.150221,0 -0.271219,-0.12092 -0.271219,-0.27114 v -1.04068 c 0,-0.15022 0.120998,-0.27114 0.271219,-0.27114 z m 2.265137,0 h 1.040675 c 0.150221,0 0.271138,0.12092 0.271138,0.27114 v 1.04068 c 0,0.15022 -0.120917,0.27114 -0.271138,0.27114 h -1.040675 c -0.150221,0 -0.271138,-0.12092 -0.271138,-0.27114 v -1.04068 c 0,-0.15022 0.120917,-0.27114 0.271138,-0.27114 z m 2.265218,0 h 1.0406748 c 0.150221,0 0.271138,0.12092 0.271138,0.27114 v 1.04068 c 0,0.15022 -0.120917,0.27114 -0.271138,0.27114 H 9.4920312 c -0.150221,0 -0.271138,-0.12092 -0.271138,-0.27114 v -1.04068 c 0,-0.15022 0.120917,-0.27114 0.271138,-0.27114 z m -6.795572,2.26514 h 1.040675 c 0.150221,0 0.271138,0.121 0.271138,0.27122 v 1.04059 c 0,0.15023 -0.120917,0.27122 -0.271138,0.27122 h -1.040674 c -0.150222,0 -0.271139,-0.12099 -0.271139,-0.27122 v -1.04059 c 0,-0.15022 0.120917,-0.27122 0.271138,-0.27122 z m 2.265217,0 h 1.040594 c 0.150221,0 0.271219,0.121 0.271219,0.27122 v 1.04059 c 0,0.15023 -0.120998,0.27122 -0.271219,0.27122 h -1.040594 c -0.150221,0 -0.271219,-0.12099 -0.271219,-0.27122 v -1.04059 c 0,-0.15022 0.120998,-0.27122 0.271219,-0.27122 z m 2.265137,0 h 1.040675 c 0.150221,0 0.271138,0.121 0.271138,0.27122 v 1.04059 c 0,0.15023 -0.120917,0.27122 -0.271138,0.27122 h -1.040675 c -0.150221,0 -0.271138,-0.12099 -0.271138,-0.27122 v -1.04059 c 0,-0.15022 0.120917,-0.27122 0.271138,-0.27122 z m 2.265218,0 h 1.0406748 c 0.150221,0 0.271138,0.121 0.271138,0.27122 v 1.04059 c 0,0.15023 -0.120917,0.27122 -0.271138,0.27122 H 9.4920312 c -0.150221,0 -0.271138,-0.12099 -0.271138,-0.27122 v -1.04059 c 0,-0.15022 0.120917,-0.27122 0.271138,-0.27122 z m -6.795572,2.26522 h 1.040675 c 0.150221,0 0.271138,0.12091 0.271138,0.27114 v 1.04067 c 0,0.15022 -0.120917,0.27114 -0.271138,0.27114 h -1.040674 c -0.150222,0 -0.271139,-0.12092 -0.271139,-0.27114 v -1.04067 c 0,-0.15023 0.120917,-0.27114 0.271138,-0.27114 z m 2.265217,0 h 1.040594 c 0.150221,0 0.271219,0.12091 0.271219,0.27114 v 1.04067 c 0,0.15022 -0.120998,0.27114 -0.271219,0.27114 h -1.040594 c -0.150221,0 -0.271219,-0.12092 -0.271219,-0.27114 v -1.04067 c 0,-0.15023 0.120998,-0.27114 0.271219,-0.27114 z m 2.265137,0 h 1.040675 c 0.150221,0 0.271138,0.12091 0.271138,0.27114 v 1.04067 c 0,0.15022 -0.120917,0.27114 -0.271138,0.27114 h -1.040675 c -0.150221,0 -0.271138,-0.12092 -0.271138,-0.27114 v -1.04067 c 0,-0.15023 0.120917,-0.27114 0.271138,-0.27114 z m 2.265218,0 h 1.0406748 c 0.150221,0 0.271138,0.12091 0.271138,0.27114 v 3.30589 c 0,0.15022 -0.120917,0.27114 -0.271138,0.27114 H 9.4920312 c -0.150221,0 -0.271138,-0.12092 -0.271138,-0.27114 v -3.30589 c 0,-0.15023 0.120917,-0.27114 0.271138,-0.27114 z m -6.795572,2.26522 h 1.040675 c 0.150221,0 0.271138,0.12091 0.271138,0.27113 v 1.04068 c 0,0.15022 -0.120917,0.27114 -0.271138,0.27114 h -1.040674 c -0.150222,0 -0.271139,-0.12092 -0.271139,-0.27114 v -1.04068 c 0,-0.15022 0.120917,-0.27113 0.271138,-0.27113 z m 2.265217,0 h 1.040594 c 0.150221,0 0.271219,0.12091 0.271219,0.27113 v 1.04068 c 0,0.15022 -0.120998,0.27114 -0.271219,0.27114 h -1.040594 c -0.150221,0 -0.271219,-0.12092 -0.271219,-0.27114 v -1.04068 c 0,-0.15022 0.120998,-0.27113 0.271219,-0.27113 z m 2.265137,0 h 1.040675 c 0.150221,0 0.271138,0.12091 0.271138,0.27113 v 1.04068 c 0,0.15022 -0.120917,0.27114 -0.271138,0.27114 h -1.040675 c -0.150221,0 -0.271138,-0.12092 -0.271138,-0.27114 v -1.04068 c 0,-0.15022 0.120917,-0.27113 0.271138,-0.27113 z"
       id="rect4708"
       inkscape:connector-curvature="0" />
  </g>
</svg>
