<?xml version="1.0" encoding="UTF-8" standalone="no"?>
<!-- Created with Inkscape (http://www.inkscape.org/) -->

<svg
   xmlns:dc="http://purl.org/dc/elements/1.1/"
   xmlns:cc="http://creativecommons.org/ns#"
   xmlns:rdf="http://www.w3.org/1999/02/22-rdf-syntax-ns#"
   xmlns:svg="http://www.w3.org/2000/svg"
   xmlns="http://www.w3.org/2000/svg"
   xmlns:sodipodi="http://sodipodi.sourceforge.net/DTD/sodipodi-0.dtd"
   xmlns:inkscape="http://www.inkscape.org/namespaces/inkscape"
   width="60"
   height="50"
   viewBox="0 0 15.875 13.229167"
   version="1.1"
   id="svg5724"
   inkscape:version="0.92.1 r15371"
   sodipodi:docname="heart-hands.svg">
  <defs
     id="defs5718" />
  <sodipodi:namedview
     id="base"
     pagecolor="#ffffff"
     bordercolor="#666666"
     borderopacity="1.0"
     inkscape:pageopacity="0.0"
     inkscape:pageshadow="2"
     inkscape:zoom="1.4"
     inkscape:cx="77.450388"
     inkscape:cy="24.621314"
     inkscape:document-units="mm"
     inkscape:current-layer="layer1"
     showgrid="false"
     fit-margin-top="0"
     fit-margin-left="0"
     fit-margin-right="0"
     fit-margin-bottom="0"
     units="px"
     inkscape:window-width="1548"
     inkscape:window-height="868"
     inkscape:window-x="52"
     inkscape:window-y="0"
     inkscape:window-maximized="1" />
  <metadata
     id="metadata5721">
    <rdf:RDF>
      <cc:Work
         rdf:about="">
        <dc:format>image/svg+xml</dc:format>
        <dc:type
           rdf:resource="http://purl.org/dc/dcmitype/StillImage" />
        <dc:title></dc:title>
      </cc:Work>
    </rdf:RDF>
  </metadata>
  <g
     inkscape:label="Layer 1"
     inkscape:groupmode="layer"
     id="layer1"
     transform="translate(164.57408,-123.60331)">
    <path
       id="path4590"
       style="fill:#e1e1e1;fill-opacity:1;fill-rule:evenodd;stroke:none;stroke-width:0.15796359px;stroke-linecap:butt;stroke-linejoin:miter;stroke-opacity:1"
       d="m -158.4646,126.82052 c -0.57101,0 -1.30659,0.31939 -1.30659,1.7555 0,1.39621 1.93464,2.214 3.11144,3.95926 1.17682,-1.74526 3.11177,-2.56305 3.11177,-3.95926 0,-1.43611 -0.73559,-1.7555 -1.3066,-1.7555 -1.25824,0 -1.80517,1.06718 -1.80517,1.06718 0,0 -0.54661,-1.06718 -1.80485,-1.06718 z m -3.61993,0.0216 c -0.0706,-1.33907 -0.15547,-1.81694 -0.36331,-2.04659 -0.50572,-0.55881 0.25301,-1.54069 0.82421,-1.06663 0.21372,0.17736 0.23833,0.42609 0.15357,1.55208 -0.1775,2.35831 -0.29528,3.30814 -0.41024,3.30814 -0.0616,0 -0.15354,-0.78615 -0.20423,-1.747 z m 0.73797,1.35354 c 0.0462,-0.43281 0.1314,-1.33578 0.18936,-2.00662 0.1068,-1.23603 0.27799,-1.48188 0.68796,-0.98791 0.15349,0.18495 0.11841,0.53862 -0.17351,1.74953 -0.43185,1.79134 -0.83897,2.5115 -0.70381,1.245 z m -0.78027,8.32116 c -0.0512,-0.20243 -0.0729,-0.56058 -0.10914,-1.2083 l -0.0593,-1.05992 c -0.0147,-0.26067 -0.0379,-0.41396 -0.16654,-0.62494 l -0.99216,-1.62703 c 0,0 -0.92608,-1.539 -0.98386,-1.6134 -0.0577,-0.0744 -0.145,-0.32702 -0.13554,-0.41511 0.009,-0.0881 0.0863,-0.80437 0.0863,-0.80437 0.0571,-0.53258 0.26068,-1.67656 0.45232,-2.54215 0.13132,-0.59313 0.21357,-0.96278 0.2919,-1.19576 0.12829,-0.38154 0.36533,-0.47108 0.53684,-0.49593 0.1772,-0.01 0.53077,0.0521 0.61485,0.4652 0.0603,0.29608 0.0816,0.79544 0.10839,1.62467 0.0439,1.35702 0.0148,1.54266 -0.30496,1.94916 -0.19437,0.24711 -0.3534,0.59342 -0.3534,0.76959 0,0.40737 1.11548,2.15215 1.37708,2.15398 0.30307,0.003 0.24207,-0.17194 -0.35411,-1.01047 -0.30295,-0.42611 -0.55083,-0.92518 -0.55083,-1.10903 0,-0.39758 0.10957,-0.58365 0.34386,-0.68715 0.18869,-0.0834 0.43676,0.0403 0.59563,0.16795 0.25385,0.20389 0.80445,1.0078 1.17744,1.36469 0.79196,0.75775 1.49032,1.21821 1.73639,1.63372 0.15974,0.29122 0.15582,1.16309 0.0976,2.44959 l -0.0847,1.87171 c -0.007,0.20814 -0.11652,0.2301 -0.38039,0.23532 l -0.88899,0.0176 c -0.69248,0.0137 -1.44436,0.003 -1.66747,-0.0223 -0.2231,-0.0259 -0.32608,-0.0459 -0.38711,-0.28726 z m 10.89218,-9.67467 c 0.0706,-1.33908 0.15548,-1.81694 0.36331,-2.0466 0.50572,-0.55881 -0.25301,-1.54069 -0.82421,-1.06663 -0.21371,0.17736 -0.23833,0.4261 -0.15357,1.55208 0.1775,2.35831 0.29528,3.30814 0.41024,3.30814 0.0616,0 0.15354,-0.78614 0.20423,-1.74699 z m -0.73797,1.35353 c -0.0462,-0.4328 -0.13139,-1.33578 -0.18935,-2.00662 -0.10681,-1.23603 -0.278,-1.48187 -0.68797,-0.9879 -0.15349,0.18494 -0.11841,0.53861 0.17351,1.74952 0.43185,1.79135 0.83897,2.51151 0.70381,1.245 z m 0.78027,8.32116 c 0.0512,-0.20242 0.0729,-0.56057 0.10914,-1.2083 l 0.0593,-1.05991 c 0.0147,-0.26067 0.0379,-0.41397 0.16654,-0.62495 l 0.99216,-1.62703 c 0,0 0.92608,-1.539 0.98386,-1.6134 0.0577,-0.0744 0.145,-0.32702 0.13554,-0.4151 -0.009,-0.0881 -0.0863,-0.80437 -0.0863,-0.80437 -0.0571,-0.53259 -0.26068,-1.67656 -0.45232,-2.54216 -0.13131,-0.59313 -0.21356,-0.96278 -0.2919,-1.19576 -0.12829,-0.38154 -0.36534,-0.47108 -0.53684,-0.49593 -0.1772,-0.01 -0.53077,0.0521 -0.61485,0.46521 -0.0603,0.29607 -0.0816,0.79544 -0.10839,1.62466 -0.0439,1.35702 -0.0148,1.54266 0.30496,1.94916 0.19438,0.24712 0.35341,0.59343 0.35341,0.76959 0,0.40737 -1.11549,2.15216 -1.37709,2.15398 -0.30307,0.003 -0.24207,-0.17194 0.35411,-1.01046 0.30296,-0.42612 0.55083,-0.92518 0.55083,-1.10903 0,-0.39759 -0.10957,-0.58366 -0.34386,-0.68716 -0.18869,-0.0834 -0.43676,0.0403 -0.59563,0.16796 -0.25385,0.20388 -0.80445,1.0078 -1.17745,1.36469 -0.79195,0.75775 -1.49031,1.2182 -1.73638,1.63371 -0.15974,0.29122 -0.15582,1.16309 -0.0976,2.44959 l 0.0847,1.87171 c 0.007,0.20814 0.11652,0.2301 0.38039,0.23533 l 0.88899,0.0176 c 0.69248,0.0137 1.44436,0.003 1.66747,-0.0224 0.2231,-0.0259 0.32608,-0.0459 0.38711,-0.28726 z"
       inkscape:connector-curvature="0" />
  </g>
</svg>
