<?xml version="1.0" encoding="UTF-8" standalone="no"?>
<!-- Created with Inkscape (http://www.inkscape.org/) -->

<svg
   xmlns:dc="http://purl.org/dc/elements/1.1/"
   xmlns:cc="http://creativecommons.org/ns#"
   xmlns:rdf="http://www.w3.org/1999/02/22-rdf-syntax-ns#"
   xmlns:svg="http://www.w3.org/2000/svg"
   xmlns="http://www.w3.org/2000/svg"
   xmlns:sodipodi="http://sodipodi.sourceforge.net/DTD/sodipodi-0.dtd"
   xmlns:inkscape="http://www.inkscape.org/namespaces/inkscape"
   width="50"
   height="50"
   viewBox="0 0 13.229167 13.229167"
   version="1.1"
   id="svg4489"
   inkscape:version="0.92.1 unknown"
   sodipodi:docname="money-lock.svg">
  <defs
     id="defs4483" />
  <sodipodi:namedview
     id="base"
     pagecolor="#ffffff"
     bordercolor="#666666"
     borderopacity="1.0"
     inkscape:pageopacity="0.0"
     inkscape:pageshadow="2"
     inkscape:zoom="8"
     inkscape:cx="53.762401"
     inkscape:cy="26.064085"
     inkscape:document-units="px"
     inkscape:current-layer="layer1"
     showgrid="false"
     units="px"
     inkscape:window-width="1548"
     inkscape:window-height="868"
     inkscape:window-x="52"
     inkscape:window-y="0"
     inkscape:window-maximized="1" />
  <metadata
     id="metadata4486">
    <rdf:RDF>
      <cc:Work
         rdf:about="">
        <dc:format>image/svg+xml</dc:format>
        <dc:type
           rdf:resource="http://purl.org/dc/dcmitype/StillImage" />
        <dc:title></dc:title>
      </cc:Work>
    </rdf:RDF>
  </metadata>
  <g
     inkscape:label="Layer 1"
     inkscape:groupmode="layer"
     id="layer1"
     transform="translate(0,-283.77083)">
    <path
       style="color:#000000;clip-rule:nonzero;display:inline;overflow:visible;visibility:visible;opacity:1;isolation:auto;mix-blend-mode:normal;color-interpolation:sRGB;color-interpolation-filters:linearRGB;solid-color:#000000;solid-opacity:1;vector-effect:none;fill:#e1e1e1;fill-opacity:1;fill-rule:nonzero;stroke:none;stroke-width:0.09573826;stroke-linecap:round;stroke-linejoin:round;stroke-miterlimit:4;stroke-dasharray:none;stroke-dashoffset:0;stroke-opacity:1;marker:none;paint-order:stroke fill markers;color-rendering:auto;image-rendering:auto;shape-rendering:auto;text-rendering:auto;enable-background:accumulate"
       d="m 6.6151568,283.77083 c -2.0386843,0 -3.7070814,1.66994 -3.7070814,3.70938 v 2.1779 h -0.161751 c -0.631509,0 -1.1397138,0.50878 -1.1397138,1.14029 v 5.06189 c 0,0.63151 0.5082048,1.13971 1.1397138,1.13971 h 7.7365166 c 0.631509,0 1.139715,-0.5082 1.139715,-1.13971 v -5.06189 c 0,-0.63151 -0.508206,-1.14029 -1.139715,-1.14029 h -0.162897 v -2.1779 c -3e-6,-2.03944 -1.6661033,-3.70938 -3.7047872,-3.70938 z m 0,1.47011 c 1.244413,0 2.2375544,0.99269 2.2375562,2.23927 v 2.1779 H 4.37588 v -2.1779 c 0,-1.24658 0.9948639,-2.23927 2.2392768,-2.23927 z m -0.287366,5.09114 h 0.7296001 v 0.82022 c 0.5136602,0.0669 0.8861178,0.29779 1.1913366,0.6103 l -0.5437586,0.62463 c -0.3498842,-0.24554 -0.6253088,-0.37168 -1.0347479,-0.37168 -0.3349955,0 -0.5133588,0.11864 -0.5133588,0.34185 0,0.52828 2.1664313,0.4618 2.1664313,1.81598 0,0.625 -0.4395798,1.12338 -1.2659026,1.26475 v 0.88848 H 6.3277908 v -0.86611 c -0.4838826,-0.0521 -1.0497004,-0.26054 -1.4219179,-0.58793 l 0.4766494,-0.74394 c 0.4689939,0.29018 0.8783577,0.46117 1.3473516,0.46117 0.3573286,0 0.5512154,-0.12665 0.5512154,-0.33497 0,-0.62501 -2.1738879,-0.51346 -2.1738879,-1.88251 0,-0.63989 0.4687102,-1.09352 1.2205894,-1.21256 z"
       id="rect5034"
       inkscape:connector-curvature="0" />
    <g
       aria-label="$"
       style="color:#000000;font-style:normal;font-variant:normal;font-weight:bold;font-stretch:normal;font-size:60.61764908px;line-height:81.18434906px;font-family:Quicksand;-inkscape-font-specification:'Quicksand Bold';font-variant-ligatures:normal;font-variant-position:normal;font-variant-caps:normal;font-variant-numeric:normal;font-variant-alternates:normal;font-feature-settings:normal;text-indent:0;text-align:start;text-decoration:none;text-decoration-line:none;text-decoration-style:solid;text-decoration-color:#000000;letter-spacing:normal;word-spacing:normal;text-transform:none;writing-mode:lr-tb;direction:ltr;text-orientation:mixed;dominant-baseline:auto;baseline-shift:baseline;text-anchor:start;white-space:normal;shape-padding:0;clip-rule:nonzero;display:inline;overflow:visible;visibility:visible;opacity:1;isolation:auto;mix-blend-mode:normal;color-interpolation:sRGB;color-interpolation-filters:linearRGB;solid-color:#000000;solid-opacity:1;vector-effect:none;fill:#fefefe;fill-opacity:1;fill-rule:nonzero;stroke:none;stroke-width:11.50811672;stroke-linecap:round;stroke-linejoin:round;stroke-miterlimit:4;stroke-dasharray:none;stroke-dashoffset:0;stroke-opacity:1;marker:none;paint-order:stroke fill markers;color-rendering:auto;image-rendering:auto;shape-rendering:auto;text-rendering:auto;enable-background:accumulate"
       id="text5038"
       transform="matrix(0.11064253,0,0,0.11058573,-3.004072,275.1004)" />
  </g>
</svg>
