<svg version="1" xmlns="http://www.w3.org/2000/svg" width="933.333" height="933.333" viewBox="0 0 700.000000 700.000000"><path d="M217.5 126.2c-90.1 9-167.4 74.1-193 162.3-30 103.7 20 215.7 117.8 263.5 63.5 31.1 137.2 30.5 200.8-1.5l7.2-3.7 10.6 5.1c33.3 15.8 62.6 22.5 98.6 22.5 21.2 0 34.3-1.5 54.2-6.5 84-20.7 149.7-89.9 166.3-175.3 22.6-116.7-51.1-232.1-166.3-260.5-19.9-5-33-6.5-54.2-6.5-36 0-65.3 6.7-98.6 22.5l-10.6 5.1-7.2-3.7c-38.6-19.4-82.8-27.6-125.6-23.3zm39.4 12.5c.8.7-3.5 5.8-6.9 8-4.1 2.9-7.2 2.9-12 .2-3.1-1.8-7-6.3-7-8.2 0-1.3 24.5-1.3 25.9 0zm225.6.3c71.2 8 133.6 51.4 166.3 115.7 15.6 30.8 22.5 59.9 22.5 95.3s-6.9 64.5-22.5 95.3c-11.1 21.8-23.1 38.2-41.2 56-50.4 49.7-121.5 70.7-191.1 56.5-12.7-2.6-33.9-9.5-45.1-14.7l-8.6-4.1 5.3-3.6c44.1-30 77.7-78.3 91-131 4.9-19.4 6.3-31.8 6.3-54.4 0-22.6-1.4-35-6.3-54.4-13.3-52.7-46.9-101-91-131l-5.3-3.6 8.6-4.1c17.4-8.1 44.1-15.6 63.6-17.8 10.8-1.2 37-1.3 47.5-.1zm-266.3 7c.7 4.5-1.1 8.8-4.9 11.9-4.5 3.7-9.9 4.1-14.8 1.1-4.9-3-8-11.1-5.7-14.6.6-1 11.2-3.6 19.2-4.7 2.9-.4 5.6 2.4 6.2 6.3zm55.6-3c3.9 2.4 7.2 7.5 7.2 11.3 0 8.5-9.8 15.5-17.3 12.4-10.7-4.5-11.8-17.8-1.8-23.6 4.5-2.6 7.7-2.6 11.9-.1zm-85.2 4.8c-3.3 6.3-11.5 8.9-17.8 5.6-2.9-1.5-3-1.7-1.2-2.7 2.2-1.3 19.7-6.6 20.2-6.2.2.2-.3 1.7-1.2 3.3zm135.4 6.9c0 2.3-3.1 6.3-6.1 7.9-1.5.7-4.7 1.4-7 1.4-3.5 0-4.8-.6-8-3.9-2.2-2.1-3.9-4.9-4-6.2-.2-3.2.2-7.2.7-8.1.8-1.2 24.4 7.4 24.4 8.9zm-85.6-.6c7.3 6.4 6.5 15.7-1.9 20.9-1.8 1.1-4.5 2-6.1 2-6 0-13.4-7.2-13.4-13 0-1.4.8-4 1.8-5.8 4.1-7.6 13.4-9.6 19.6-4.1zm-61.7 4.7c3.2 2 6.3 7.4 6.3 10.8 0 5.9-7.2 13.4-12.8 13.4-6.9 0-13.2-6.6-13.2-13.8 0-9.6 11.6-15.7 19.7-10.4zm-24.1 6.8c1.1 6.2-6.2 14.4-12.8 14.4-5.2 0-12.7-5.3-11.5-8.3.3-.7 5.1-3.9 10.8-7 11.5-6.3 12.1-6.2 13.5.9zm141.7-2c7.6 5.7 7.5 15.9-.2 21.3-6 4.3-15.1 1.9-18.6-4.9-3.6-6.9-.4-14.5 7.5-18.2 2.4-1.2 8.6-.2 11.3 1.8zm36.5 0c1.3.4 2.2 1 2 1.4-.4 1.1-17 14-18 14-1.5 0-.8-5.5 1.2-8.8 3.4-5.6 9-8.1 14.8-6.6zM201.5 169c3.5 2.2 6.5 7.3 6.5 11.2 0 5.6-7.5 12.8-13.4 12.8-1.6 0-4.3-.9-6.1-2-8.4-5.2-9.2-14.5-1.9-20.9 4.2-3.8 9.9-4.2 14.9-1.1zm151.5.7c1.4.9 2.7 1.8 3 2 .2.2-.2.8-1 1.3-2 1.3-7.1 1.2-9 0-1.3-.9-1.1-1.3 1-3 3.1-2.4 3-2.4 6-.3zm-97 1c4.1 2.4 7.3 8.6 6.6 12.8-1.2 6.2-7.3 11.5-13.4 11.5-4.1 0-9.4-3.8-11.6-8.4-1.6-3.2-1.7-4.4-.7-7.6 1.6-5.5 7.1-10 12.2-10 2.3 0 5.4.7 6.9 1.7zm112.5 9.6c5.9 4.6 7 5.9 6.8 8.2-.2 3.1-3.4 7-7.5 9.1-8 4.1-17.8-2.7-17.8-12.5 0-3.5.6-4.7 4-8.1 4.7-4.7 4-4.8 14.5 3.3zm-30.4-1.5c-1.2 4.1-3.1 6.7-6 8.5l-2.6 1.6 4-.5c6.9-.9 14.5 6 14.5 13 0 6.4-6.6 12.9-13 12.9-12.8 0-17.7-15.4-7.6-23.5 2.1-1.7 2.1-1.7-1.2-1.6-1.8.1-3.5-.1-3.8-.4-.5-.6 14.4-12.6 15.8-12.7.4-.1.3 1.2-.1 2.7zm-112.7 5.1c8.7 5.8 8.7 16.4 0 22.2-8 5.2-19.4-1.3-19.4-11.1 0-6.6 6.4-13 13-13 1.9 0 4.8.9 6.4 1.9zm-106.3 3.4c4.4 2.9 7.3 8.7 6.5 13-1.8 8.7-12.1 13.4-19.7 9-3.7-2.2-7.3-9.4-6.5-12.9 1.6-6.3 7.5-11.4 13.2-11.4 1.7 0 4.6 1 6.5 2.3zm27.7-.3c3.7 2.3 7.2 7.5 7.2 10.8 0 7-6.6 13.2-14 13.2-3.6 0-4.8-.6-8.1-3.9-2.2-2.1-3.9-4.9-4-6.2-.3-7.1 1.3-10.5 6.4-13.8 4.1-2.6 8.3-2.6 12.5-.1zm157.7-1.2c.6.4-2.7 4.5-7.7 9.7l-8.6 8.9-.8-3.9c-.9-4.9 1.6-9.9 6.5-13.2 3.3-2.2 8.6-3 10.6-1.5zm-128.8 7.7c3.3 2.2 6.3 7.4 6.3 11.1 0 4.2-3.7 9.5-8.4 11.8-3.2 1.6-4.4 1.7-7.6.7-2.1-.6-5.2-2.7-6.9-4.6-9.5-10.9 4.5-26.9 16.6-19zm97 0c3.3 2.2 6.3 7.4 6.3 11.1 0 4.2-3.7 9.5-8.4 11.8-3.2 1.6-4.4 1.7-7.6.7-2.1-.6-5.2-2.7-6.9-4.6-5.6-6.4-3.8-14.6 4.3-19.7 3.5-2.2 8.3-1.9 12.3.7zm40.2 7.8c-1.2 4.2-7.1 9.7-10.5 9.7-2.7 0-2.7 0-.8-2.3 4.6-5.6 10.8-11.6 11.5-11.1.4.2.3 1.9-.2 3.7zm-218.9 3c0 5.3-2.6 9.3-7.7 11.8-4.2 2-10.8 1.9-10.1-.2.2-.4 3.9-4.7 8.2-9.4 8.4-9.3 9.6-9.5 9.6-2.2zm309.6 9.4c2 2.3 3.3 4.7 3 5.2-1.3 2-7.3 2.3-11 .6-7.1-3.4-10.2-11.9-6.6-18.5l1.3-2.4 4.9 5.4c2.7 3 6.5 7.4 8.4 9.7zM378 205c3.3 3.3 4 4.7 4 8 0 2.3-.7 5.4-1.5 7-1.8 3.5-7.3 7-11.1 7-6.8 0-13.4-6.7-13.4-13.5 0-6.4 6.7-12.5 13.8-12.5 3.6 0 4.8.6 8.2 4zm-177.6.9c8.7 5.8 8.7 16.4 0 22.2-7.9 5.2-19.4-1.3-19.4-10.9 0-10 11.3-16.6 19.4-11.3zm43.4-.3c9.1 5.4 9.1 17.4 0 22.8-7.8 4.7-19.1-2-19.1-11.3 0-9.5 11.2-16.2 19.1-11.5zm70.1 10.3c4 2.9 6.4 8.4 5.6 12.7-.8 4.3-6.3 9.9-10.6 10.8-7.7 1.5-17.1-7.7-15.3-15.1 2.4-9.7 12.5-13.9 20.3-8.4zm-185.2 2.7c3.3 2.1 6.3 7.3 6.3 11 0 4.2-3.7 9.5-8.4 11.8-3.2 1.6-4.4 1.7-7.6.7-2.1-.6-5.2-2.7-6.9-4.6-9.5-10.8 4.6-26.8 16.6-18.9zm216 0c3.2 2.1 6.3 7.3 6.3 10.7 0 6-5.3 12.1-11.5 13.3-4.2.7-10.4-2.5-12.8-6.6-6.7-11.3 7.1-24.6 18-17.4zm-187 3.2c3.2 2 6.3 7.4 6.3 10.8 0 5.9-7.2 13.4-12.8 13.4-3.9 0-9-3-11.2-6.5-3.1-5-2.7-10.7 1.1-15 4.7-5.3 11-6.4 16.6-2.7zm113.6 5.4c-5.6 8.8-5.2 8.3-5.9 7.5-1.5-1.5.9-7.9 4.2-11.2 6-6 6.8-4.2 1.7 3.7zM100 224.5c3.5 1.8 7 7.3 7 11.1 0 6.2-7.2 13.4-13.4 13.4-3.8 0-9.3-3.5-11.1-7-.8-1.6-1.5-4.8-1.5-7.1 0-3.5.6-4.8 3.9-8 3.2-3.3 4.5-3.9 8-3.9 2.3 0 5.5.7 7.1 1.5zm122.5.1c3.4 2.2 6.5 7.5 6.5 11 0 5.9-7.2 13.4-12.8 13.4-7 0-13.2-6.6-13.2-13.9 0-3.5.6-4.7 4-8.1 3.5-3.5 4.6-4 8.5-4 2.5 0 5.7.7 7 1.6zm187.5.1c8.8 6.1 8.8 16.2.1 22-7.5 5.1-17.2.6-19.5-9-.9-3.8 2.4-10.6 6.1-12.9 3.6-2.2 10.2-2.3 13.3-.1zm-119.4 3.8c2.4 5.9-.6 12.8-7 15.9-3.4 1.6-8.6 2.2-8.6 1 0-1.7 12.5-20.4 13.6-20.4.3 0 1.2 1.6 2 3.5zm-103.5 5.4c3.4 3.4 3.9 4.4 3.9 8.5 0 2.6-.7 5.8-1.6 7.1-2.2 3.4-7.5 6.5-11 6.5-6 0-13.4-7.2-13.4-13 0-6.8 6.6-13 13.9-13 3.7 0 4.9.6 8.2 3.9zm188.4-1.3c3.4 2.2 6.5 7.5 6.5 11 0 5.9-7.2 13.4-12.8 13.4-7 0-13.2-6.6-13.2-14 0-3.6.6-4.8 3.9-8.1 3.4-3.4 4.4-3.9 8.5-3.9 2.6 0 5.8.7 7.1 1.6zM71.8 234c4.7 2.9 7.4 7.7 6.9 12.2-1.3 10.5-13.4 15.5-21.2 8.7-1.9-1.7-3.5-3.9-3.5-4.8 0-.9 2.3-5.4 5.1-9.9 5.5-9.1 6.9-9.7 12.7-6.2zm187.1-.6c5.8 3 5.8 3.7.5 14.6-4.1 8.3-5.3 9.9-7.3 10-5.5.1-12.1-7-12.1-13.2 0-3.3 3.5-8.5 7.2-10.8 3.9-2.4 7.8-2.5 11.7-.6zm165.6 10l2.9 4.9-2.7-1.7c-3.5-2.3-5.7-5.9-5.7-9.3 0-2.6.1-2.6 1.3-.8.8 1.1 2.7 4.2 4.2 6.9zm-110.2 4.1c3.5 2.2 6.1 8 5.3 11.8-.3 1.7-1.7 4.5-3 6.2-5.1 6.6-13 7-19 1.1-4-4-5.1-8.5-3.2-13 3.6-8.7 12.1-11.3 19.9-6.1zm-198.7 2.1c7 3.3 9.6 10.3 6.4 16.9-5.1 10.5-18.5 10.5-23.5-.1-2.9-6.1 0-13.4 6.7-16.7 4.2-2.1 6.2-2.1 10.4-.1zm30.8.3c4.2 2.8 6.6 7 6.6 11.8 0 3.7-.6 4.9-4 8.3-3.3 3.3-4.7 4-8 4-2.3 0-5.4-.7-7-1.5-3.7-1.9-7-7.4-7-11.5 0-9.5 11.7-16.2 19.4-11.1zm65.7 2c3.7 3.7 4.4 5.5 3.9 11-.4 5.3-7 11.1-12.6 11.1-6 0-13.4-7.2-13.4-13 0-6.8 6.6-13 13.9-13 3.7 0 4.9.6 8.2 3.9zm129.4-1.9c3.5 2.2 6.5 7.3 6.5 11.2 0 5.6-7.5 12.8-13.4 12.8-3.5 0-8.8-3.1-11-6.5-.9-1.3-1.6-4.5-1.6-7.1 0-4.1.5-5.1 3.9-8.5 3.3-3.3 4.5-3.9 8.1-3.9 2.5 0 5.6.8 7.5 2zm67 4.1c1.9 1.7 4 4.8 4.6 6.9 1 3.2.9 4.4-.7 7.6-2.3 4.7-7.6 8.4-11.8 8.4-6.1 0-13.6-7.1-13.6-12.8 0-3.3 2.4-7.5 6-10.6 4.6-3.8 10.7-3.6 15.5.5zm-169.8 1c4.2 2.6 6.3 6.6 6.3 11.9 0 3.3-.7 4.7-4 8-3.4 3.4-4.7 4-8.1 4-8.1 0-14.6-6.7-13.6-14 1.3-9.9 11.2-14.9 19.4-9.9zm47.5.9c5.9 4.9 6.8 11.2 2.6 17.3-5.6 7.9-16.5 7.2-21.8-1.5-2.5-4.2-2.5-5.7.1-11.1 4-8.2 12.3-10.3 19.1-4.7zm149.2 8.9c2.5 6 4.6 11.3 4.6 11.8 0 1.6-4.8 3.3-9 3.3-3.3 0-4.7-.7-8-4-3.5-3.5-4-4.6-4-8.5 0-2.6.7-5.7 1.7-7.2 1.8-2.7 6.9-6.3 9-6.3.6 0 3.2 4.9 5.7 10.9zM90.7 260c8.2 5.2 7 18.1-2.1 22.4-4.6 2.2-7.7 2-11.7-.7-7.6-5.1-8.8-13.6-2.8-19.6 4.9-4.9 10.9-5.6 16.6-2.1zm87 1.2c8.6 8.6 2.8 21.8-9.7 21.8-3.3 0-4.7-.7-8-4-3.4-3.4-4-4.6-4-8.3 0-12 13.3-17.9 21.7-9.5zm192.6 0c7.9 5.6 7.2 16.4-1.5 21.9-8 5-18.8-1.8-18.8-11.8 0-2.8.8-4.8 3.1-7.6 4.8-5.8 11.1-6.7 17.2-2.5zM67.4 276.1c5.7 4.9 6.5 11.2 2.4 17.2-5.6 7.9-16.5 7.2-21.8-1.5-2.5-4.1-2.5-7.4-.2-11.6 4.1-7.6 13.4-9.6 19.6-4.1zm197.3-.9c4.8 5.3 5.4 9.1 2.2 14.8-2.4 4.2-6.5 7-10.4 7-3 0-3.1.8 1.7-14.3 1.8-5.3 3.5-9.7 3.8-9.7.4 0 1.6 1 2.7 2.2zm-19.1 5.7c-1.4 4.8-2.4 6.5-2.9 5.5-1.2-2 0-6.8 2.4-9.9 1.1-1.4 2.2-2.5 2.3-2.5.2 0-.6 3.1-1.8 6.9zm82.4-3.4c12 6.2 7.5 24.5-6.1 24.5-4.3 0-9.3-3.3-11.3-7.4-2.1-4.4-2-7.3.2-11.4 3.4-6.5 10.9-9 17.2-5.7zm-122.4 1.1c9.6 4.6 10.3 17.5 1.2 22.9-8.2 4.8-19.8-2-19.8-11.7 0-5.4 7.4-12.8 12.8-12.8 1.3 0 3.9.7 5.8 1.6zm-59.6 2c3.5 3 6 7.3 6 10.5s-3.8 9.4-7 11.2c-8.1 4.8-19.3-1.7-19.3-11.2 0-10.4 12.6-16.9 20.3-10.5zm248-1.1c4.2 2.2 7.3 7 7.3 11.5s-3.1 9.3-7.3 11.5c-8.6 4.4-18.5-1.8-18.5-11.5s9.9-15.9 18.5-11.5zm-93.6 1.4c8.7 5.8 8.6 18-.3 22.6-8.6 4.4-19.1-2-19.1-11.6 0-6.5 6.5-12.9 13-12.9 1.9 0 4.8.9 6.4 1.9zM115.5 284c6.5 4 8.6 10.1 5.6 16.4-3.6 7.3-11.8 9.8-18.6 5.6-8.5-5.2-8.1-16.6.8-22 4.1-2.5 8.1-2.5 12.2 0zm313 0c8.4 5.2 9.2 14.5 1.9 20.9-4.2 3.8-9.9 4.2-14.9 1.1-3.5-2.2-6.5-7.3-6.5-11.2 0-5.6 7.5-12.8 13.4-12.8 1.6 0 4.3.9 6.1 2zm-191.4 4.1c4 4 4.1 4.3 3.6 9-.7 5.5-2.3 8.3-6.4 11-10.3 6.9-23.9-6.9-17.3-17.5 2.7-4.5 6.3-6.5 11.8-6.6 3.6 0 4.8.6 8.3 4.1zm-58.8-.5c6.5 4.8 7.6 12.7 2.7 18.6-4.9 5.9-11.2 6.8-17.3 2.6-7.9-5.6-7.2-16.4 1.5-21.9 3.9-2.4 9.3-2.1 13.1.7zm177.3-1c3.8 1.8 6.8 5.5 7.8 9.7 1.8 7.4-7.6 16.6-15.3 15.1-4.4-.9-9.8-6.5-10.7-10.9-.8-4.4 2-10.1 6.6-13.3 3.9-2.6 7-2.8 11.6-.6zm-313 6.5c10.4 5 10.3 18.4-.2 23.4-3.5 1.7-9.7 1.5-10.8-.4-.6-.9 2.9-18.7 4.4-22.6 1.1-3 1.3-3 6.6-.4zm405.5 10.3c1.2 5.3 1.9 10 1.6 10.3-1.1 1-5.7-3.3-7.7-7.2-2.1-4.2-1.8-7.2 1-12.5 1.8-3.3 2.8-1.5 5.1 9.4zm-358-4.5c3.3 3.3 3.9 4.5 3.9 8.2 0 2.5-.8 5.7-1.9 7.5-2 3.3-7.5 6.4-11.3 6.4-5.6 0-12.8-7.5-12.8-13.4 0-3.7 3.4-9.2 6.8-11.1 1.5-.8 4.7-1.4 7.1-1.5 3.7 0 4.9.5 8.2 3.9zm180.9-.4c9.4 4.8 10.2 17.1 1.5 22.5-6.8 4.2-15 1.7-18.6-5.6-3-6.2-1-12.2 5.4-16.3 3.8-2.4 7.7-2.6 11.7-.6zm106 6c6.9 3.6 9.5 11 6 17.3-2.7 4.8-6.6 7.2-11.9 7.2-5.1 0-10.6-4.5-12.2-10-1-3.3-.9-4.4.8-7.7 3.7-7.2 11-10.1 17.3-6.8zm-222.7 5.1c7.6 5.7 7.5 15.9-.2 21.3-6 4.3-15.1 1.9-18.6-4.9-6.1-11.7 8.3-24.2 18.8-16.4zm173.3-1c4.5 2.1 7.4 7 7.4 12.4 0 3.6-.6 4.8-3.9 8.1-3.4 3.4-4.4 3.9-8.5 3.9-2.6 0-5.8-.7-7.1-1.6-3.4-2.2-6.5-7.5-6.5-11 0-5.9 7.2-13.4 12.8-13.4 1.3 0 3.9.7 5.8 1.6zm88.2.4c4 2.4 7.2 7.5 7.2 11.4 0 3.5-3.1 8.8-6.5 11-1.3.9-4.5 1.6-7.1 1.6-4.2 0-5.1-.4-8.6-4-3.1-3.4-3.8-4.8-3.8-8.2 0-5.1 3-10 7.3-12.2 4.3-2.1 7.5-2 11.5.4zm-220.4 1.9c8.7 5.8 8.6 18-.3 22.6-8.6 4.4-19.1-2-19.1-11.6 0-6.5 6.5-12.9 13-12.9 1.9 0 4.8.9 6.4 1.9zm104 1c8.5 5.6 8.6 16.9.1 22.1-8.5 5.3-19.5-1.2-19.5-11.5 0-9.4 11.5-15.8 19.4-10.6zm-75 1c8.7 5.8 8.7 16.4 0 22.2-8 5.2-19.4-1.3-19.4-11.1 0-6.6 6.4-13 13-13 1.9 0 4.8.9 6.4 1.9zm-157.8 2.9c5.7 4.3 7.1 11.6 3.5 17.6-2.1 3.3-7.3 6.6-10.6 6.6-6.6 0-14.2-8.4-13.2-14.5 1.6-10.1 12.6-15.4 20.3-9.7zm56.4.2c3.1 2.2 6 7.6 6 11.2 0 5.2-8 12.8-13.5 12.8-3.3 0-8.5-3.3-10.6-6.6-2.6-4.2-2.7-9.5-.3-13.2 4.6-7.1 12-8.8 18.4-4.2zm324.7 2.6c3.1 1.9 3.9 3.9 4.7 11 .6 5.9.6 6.3-2.4 9.2-6.1 6.1-14.6 4.9-19.7-2.7-3.9-5.7-2.4-12.7 3.4-16.9 4.7-3.3 9.3-3.5 14-.6zM356 327c3.5 3.5 4 4.6 4 8.6 0 13-15.6 18.2-23.3 7.8-6.3-8.4.2-20.3 11.1-20.4 3.6 0 4.8.6 8.2 4zm-82.3.6c3.2 2.1 6.3 7.3 6.3 10.7 0 6-5.3 12.1-11.5 13.3-4.2.7-10.4-2.5-12.8-6.6-6.7-11.3 7.1-24.6 18-17.4zM96.8 331c3.7 2.3 7.2 7.5 7.2 10.8 0 3.9-3 9-6.5 11.2-5 3.1-10.7 2.7-14.9-1.1-7.3-6.3-6.4-16 1.9-21 3.9-2.4 8.2-2.4 12.3.1zm75 0c3.7 2.3 7.2 7.5 7.2 10.8 0 6.9-6.6 13.2-13.8 13.2-3.4 0-4.8-.7-8.2-3.8-3.6-3.5-4-4.4-4-8.8 0-5.4 1.7-8.2 6.5-11.4 3.8-2.5 8.1-2.5 12.3 0zm225.6-.1c8.4 5.6 8.8 16.3.7 22-7.9 5.7-20.1-.9-20.1-10.8 0-9.6 11.6-16.3 19.4-11.2zM235 344.5c0 11.7-.1 12.5-1.7 11.6-5.1-2.7-8.2-8.7-7.5-14.4.3-2.7 6.3-9.7 8.2-9.7.6 0 1 5.1 1 12.5zm-189.4-7.9c6.8 3.2 9.8 10.6 6.9 16.8-4.8 10-17.9 10.7-23.2 1.3-1.8-3.3-1.5-9.8.6-13.3 1.9-3.1 7.2-6.3 10.4-6.4 1.1 0 3.4.7 5.3 1.6zm273.5 1.1c6 5.1 7 11.4 2.7 17.6-5.6 7.9-16.4 7.2-21.9-1.5-7-11.3 8.9-24.7 19.2-16.1zM251 340c1.5 3.6.7 8.6-2 12l-2 2.5v-8.6c0-10.7 1.2-12.6 4-5.9zm-47.7.2c8.4 5.9 7.2 17.4-2.4 22.3-3.8 2-6.5 1.9-10.9-.6-6.4-3.6-8.8-10.6-5.6-16.7 4-7.7 11.9-9.8 18.9-5zm-66.8-.2c7.3 3.6 9.8 11.6 5.6 18.4-4.3 6.8-12 8.2-18.6 3.2-6.6-5.1-7-13-1-19 3-3 4.7-3.8 8.9-4.5.5 0 2.8.8 5.1 1.9zm293 1c3.5 2.2 6.5 7.3 6.5 11.2 0 5.6-7.5 12.8-13.4 12.8-5.6 0-12.2-5.8-12.6-11.1-.5-5.5.2-7.3 3.9-11 3.3-3.3 4.5-3.9 8.1-3.9 2.5 0 5.6.8 7.5 2zm-56.4 6.1c8.1 5.7 7.7 16.4-.7 22-7.7 5-19.4-1.6-19.4-11 0-10.1 12.1-16.7 20.1-11zm-299.9.8c3.7 1.4 7.7 6 8.4 9.7.9 4.9-.3 8.4-4.2 12.1-3 2.8-4.3 3.3-8.5 3.3-4.4 0-5.3-.4-8.9-4-3.4-3.4-4-4.6-4-8.1 0-9.3 9-16.1 17.2-13zm217.8 1.6c12.4 6.4 7.6 24.5-6.5 24.5-2.8 0-4.5-.9-7.8-3.9-3.8-3.6-4.2-4.4-4.2-8.8 0-10.1 9.8-16.3 18.5-11.8zm-65.4 6.1c12.2 5.8 8 24.4-5.6 24.4-13.5 0-17.8-18.4-5.7-24.4 4.1-2 7-2 11.3 0zm115.2.4c3.7 2.3 7.2 7.5 7.2 10.8 0 7-6.6 13.2-14 13.2-3.6 0-4.8-.6-8.1-3.9-3.5-3.4-3.9-4.4-3.9-8.7 0-5.4 1.7-8.2 6.5-11.4 3.8-2.5 8.1-2.5 12.3 0zm-77 2c4 2.4 7.2 7.5 7.2 11.4 0 3.5-3.1 8.8-6.5 11-3.4 2.2-10.7 2.1-13.6-.2-2-1.7-2.2-2.8-2.3-11.2l-.1-9.2 3.5-1.9c4.4-2.4 7.7-2.4 11.8.1zm-152.2.6c12.5 5.9 8.2 24.7-5.6 24.7-6.5 0-13-6.7-13-13.5 0-5.4 7.4-12.8 12.8-12.8 1.3 0 3.9.7 5.8 1.6zm47 0c4.4 2.1 7.4 7.1 7.4 12.2 0 7.3-8.5 14.2-15.2 12.4-5.7-1.4-10.8-7.5-10.8-12.8 0-5.9 7.2-13.4 12.8-13.4 1.3 0 3.9.7 5.8 1.6zm294.1 7.4c-1.1 14.4-1.7 17-3.9 17-5.4 0-11.3-6.5-11.3-12.5 0-6.7 6.6-13.4 13.4-13.5h2.4l-.6 9zM38 365.6c2.4 2.8 3 4.4 3 8.1 0 3.9-.5 5-3.9 8.4-2.1 2.2-4.3 3.9-4.8 3.9-1.1 0-3.3-14.1-3.3-21.2v-4.7l3 1c1.6.6 4.3 2.6 6 4.5zm372.9-2.7c8.4 6 7.2 18-2.4 22.5-8.8 4.2-20.2-5-17.8-14.5 2.3-9.3 12.6-13.4 20.2-8zm-224.3 2.2c5.2 2.5 8.9 9 7.8 13.6-1.7 7-8.7 12-15 10.8-4.4-.8-10.1-6.5-10.9-10.9-1.2-5.9 3.8-13.3 10-14.9 3.4-.8 3.7-.8 8.1 1.4zM62 374.5c9.3 4.8 9.3 18.2 0 23-6.3 3.3-14.3.5-17.4-5.9-2.1-4.4-2-7.3.2-11.4 3.4-6.5 10.9-9 17.2-5.7zm253.8.1c9.1 5.4 9.1 17.4 0 22.8-7.8 4.7-19.1-2-19.1-11.3 0-9.5 11.2-16.2 19.1-11.5zm71.3 2.2c2.1 2.1 4.1 5 4.4 6.5 1.1 4.1-.3 7.7-4.4 11.9-3.2 3.1-4.6 3.8-7.8 3.8-5.1 0-10.2-3.4-12.7-8.4-1.6-3.2-1.7-4.4-.7-7.6 1.7-5.7 7.3-10 12.9-10 3.8 0 5 .6 8.3 3.8zm-100.1.7c6.9 3.6 9.5 11 6 17.3-2.7 4.8-6.6 7.2-11.9 7.2-5.1 0-10.6-4.5-12.2-10-1-3.2-.9-4.4.7-7.6 3.5-7.2 11.1-10.2 17.4-6.9zm-153 2.2c3.2 1.8 7 8 7 11.2 0 5.9-7 13.1-12.6 13.1-7.4 0-13.7-6-13.7-13.1 0-9.5 11.2-16 19.3-11.2zm300.8.3c3.7 2.3 7.2 7.5 7.2 10.8 0 3.9-3 9-6.5 11.2-6.8 4.2-15 1.7-18.6-5.6-3-6.2-1-12.2 5.4-16.3 4.1-2.6 8.3-2.6 12.5-.1zM94 381.2c4.5 3.1 7.4 8.9 6.6 13.1-1.8 8.7-12.1 13.5-19.7 9-3.7-2.2-7.3-9.4-6.5-12.9 1.6-6.3 7.5-11.4 13.2-11.4 1.7 0 4.6 1 6.4 2.2zm258.7-.5c4.6 2.1 7.3 6.7 7.3 12.2 0 3.7-.6 4.9-3.9 8.2-3.3 3.3-4.5 3.9-8.2 3.9-2.5 0-5.7-.8-7.5-1.9-3.3-2-6.4-7.5-6.4-11.3 0-5.4 7.4-12.8 12.8-12.8 1.3 0 4 .8 5.9 1.7zm-114.4 9c1 5.4 2 11 2.3 12.5 1 4.5-3.6 3.8-8.6-1.2-3.4-3.4-4-4.6-4-8.3 0-4.3 2.1-8.6 5.6-11.2 1-.8 2.1-1.5 2.4-1.5.3 0 1.4 4.4 2.3 9.7zm-21.4-4.8c4 2.9 6.4 8.4 5.6 12.7-.8 4.3-6.3 9.9-10.6 10.8-4 .8-10.5-2.2-13.3-6.1-2.7-3.7-2.6-10 .1-13.9 4.6-6.4 12.1-7.8 18.2-3.5zm36.8 6.4c.8 6.6-1.2 6.6-2.6 0-1.5-7.4-1.4-8 .5-6.1.9.9 1.8 3.6 2.1 6.1zm-91.6 4.6c3.3 3.2 3.9 4.5 3.9 8 0 2.3-.7 5.5-1.5 7.1-1.8 3.5-7.3 7-11.1 7-6.2 0-13.4-7.2-13.4-13.4 0-3.7 3.4-9.2 6.8-11.1 1.5-.8 4.7-1.4 7.1-1.5 3.7 0 4.9.5 8.2 3.9zm28.9 2.6c1.6 1.5 3.4 4 4 5.6 3.2 7.6-3.7 16.9-12.5 16.9-7.4 0-14.5-8.4-12.7-15.2 2.5-10 14.2-14 21.2-7.3zm222.5-1.5c3.4 2.1 6.5 7.3 6.5 11 0 5.5-5.9 11.9-11.7 12.7-6.7.9-13.8-4.5-14.3-10.7-.5-5.4.2-7.2 4-11 3.4-3.4 4.6-4 8.1-4 2.4 0 5.5.8 7.4 2zm-363.7 6c3.7 2.3 7.2 7.5 7.2 10.8 0 6-6.5 13.2-11.9 13.2-2.5 0-3.5-2-7.4-14.8l-2.5-8.2 2.6-1.5c3.8-2 8.1-1.8 12 .5zm216 0c9.4 5.7 9.1 17.4-.5 22.7-1.8.9-3.4 1.5-3.6 1.3-.6-.9-5.6-15.4-6.7-19.9-.9-3.5-.9-4.6.2-5.2 2.3-1.5 7.2-1 10.6 1.1zm59.6-.1c6.1 4.1 8.2 11 5.1 17.1-3.3 6.3-11.1 8.8-17.5 5.5-3.7-1.9-7-7.4-7-11.5 0-9.5 11.7-16.2 19.4-11.1zm-206.5 2c6.9 4.9 7.5 13.6 1.5 19.6-6.1 6.1-14.6 5.3-19.7-1.9-8.1-11.4 6.7-25.9 18.2-17.7zm327.7-1.2c-4 13.2-5.9 18.3-6.6 17.8-2-1.3-3.2-7.4-2-11 1.7-5 10.1-11.7 8.6-6.8zm-364.3 2.9c7.7 5.7 7.5 15.9-.4 21.5-8.2 5.8-19.9-.9-19.9-11.3 0-4.7 3.6-9.5 9-12 2.4-1.2 8.6-.2 11.3 1.8zm302.7-.4c6.7 4.6 8.6 13.1 4.2 18.4-6.9 8.2-17.7 7.2-22.2-2.1-1.1-2.3-2-4.7-2-5.4 0-2.9 3.5-8.4 6.9-10.7 4.5-3 8.8-3.1 13.1-.2zm-90.3 3.3c5.6 3.7 7.7 10.9 4.8 16.5-3.3 6.5-10.6 9.1-16.9 6.1-10.8-5.3-10-18.9 1.4-24.3 2.2-1.1 7.8-.2 10.7 1.7zm60.9-.9c7 3.3 9.6 10.3 6.4 16.9-5.1 10.5-18.5 10.5-23.5-.1-2.9-6.1 0-13.4 6.7-16.7 4.2-2.1 6.2-2.1 10.4-.1zm-126 2c4.1 2 7.4 7 7.4 11.3 0 10.3-11.9 16.9-20 11.1-8.3-5.9-7.9-16.8.9-21.9 4.4-2.5 7.2-2.6 11.7-.5zM144 421.7c3.3 1.9 7 8 7 11.4 0 5.8-7.5 12.9-13.6 12.9-4.2 0-9.5-3.7-11.8-8.4-1.6-3.2-1.7-4.4-.7-7.6 1.6-5.5 7.1-10 12.2-10 2.3 0 5.4.7 6.9 1.7zm291.1 0c1.6 1 3.1 2.5 3.4 3.4.3.9-1.3 6-3.6 11.3-4.5 10.5-5.7 11.3-11.9 8.1-8.7-4.5-9.8-15.2-2.2-21.5 4.3-3.5 9.7-4 14.3-1.3zm-231.7 3.2c6.4 4.3 8.4 11.7 4.6 17.8-5.1 8.4-16.4 8.3-22.1-.3-5.1-7.8 1.5-19.4 11.1-19.4 1.9 0 4.8.9 6.4 1.9zm-27 4.2c7.3 6.4 6.5 15.7-1.9 20.9-1.8 1.1-4.5 2-6.1 2-6 0-13.4-7.2-13.4-13 0-1.4.8-4 1.8-5.8 4.1-7.6 13.4-9.6 19.6-4.1zm76.9 10.1l4.8 11.3-2.3 1.7c-6.5 4.9-15.5 2.2-19.2-5.7-3.6-7.4 2.1-16.6 11.4-18.4.3-.1 2.7 5 5.3 11.1zm-144.7-8.6c7.6 3.6 9.7 13.2 4.4 19.6-4.9 5.9-11.2 6.8-17.3 2.6-7.9-5.6-7.2-16.5 1.5-21.8 4-2.4 6.9-2.5 11.4-.4zm212.3-.1c4.6 2.3 8.1 7.2 8.1 11.1 0 10.6-11.7 17.3-19.9 11.5-7.8-5.6-8.1-15.6-.7-21.1 4.5-3.3 8.2-3.8 12.5-1.5zm-242.2 4c3.3 2.2 6.3 7.4 6.3 11.1 0 4.2-3.6 9.3-8.3 11.7-3.3 1.7-4.4 1.8-7.7.8-2.1-.6-5.2-2.7-6.9-4.6-9.5-10.9 4.5-26.9 16.6-19zm329.2.4c6.8 4.9 7.5 13.6 1.6 19.6-6.1 6-14.7 5.2-19.8-1.9-8.1-11.4 6.7-25.9 18.2-17.7zm-124.3 2.2c10.5 5 10.3 18.4-.2 23.4-3.6 1.7-3.7 1.7-5.4-.5-.9-1.2-3.6-6-6.1-10.6l-4.4-8.5 3-2.4c2.6-2.1 4.2-2.8 7.9-3.4.5 0 2.9.8 5.2 2zm64.7-.7c10.8 4.5 11.7 17.8 1.7 23.5-2.1 1.2-4.8 2.1-6.1 2.1-5.8 0-12.9-7.5-12.9-13.6 0-4 3.6-9.2 8-11.5 4.1-2.3 5.1-2.3 9.3-.5zm32.9 6.3c5.4 5.2 5.5 12.5.2 17.8-5.9 5.9-13.6 5.6-18.9-.6-4.8-5.8-4.5-11.9 1-17.3 5.2-5.3 12.2-5.2 17.7.1zM231 446.5c9.3 4.8 9.3 18.2 0 23-6.3 3.3-14.3.5-17.4-5.9-2.1-4.4-2-7.3.2-11.4 3.4-6.5 10.9-9 17.2-5.7zm-89.9 3.8c1.9 1.2 4.2 4 5.3 6.1 1.6 3.2 1.7 4.4.7 7.6-1.6 5.5-7.1 10-12.2 10-5.3 0-9.2-2.4-11.9-7.2-3.4-6.1-1.3-12.8 5.3-16.8 4.2-2.6 8.6-2.5 12.8.3zm61.9 5.8c6.8 3.8 8.9 11.2 5 17.6-4.1 6.7-11.9 8.6-17.9 4.4-8.6-6.2-8-16.5 1.3-22.2 4-2.4 7-2.4 11.6.2zm105.6-.5c7 3.3 9.6 10.3 6.4 16.9-5.1 10.5-18.5 10.5-23.5-.1-2.9-6.1 0-13.4 6.7-16.7 4.2-2.1 6.2-2.1 10.4-.1zM170.5 457c10.2 4.9 10.1 18.1-.2 23.1-6.6 3.2-13.3.7-16.8-6.1-3.2-6.2-.4-13.5 6.5-17.1 4.4-2.4 5.4-2.4 10.5.1zm-66.2 1.4c8.7 3.6 11.3 12.9 5.6 19.8-4.2 5.2-9.4 6.7-14.5 4.2-4.7-2.3-8.4-7.6-8.4-11.9 0-4.2 3.7-9.6 8-11.7 4.2-2.2 5.1-2.2 9.3-.4zm163.8 9.1l6.1 10-3.3 2.7c-4.6 3.9-8.1 4.4-13.2 1.9-10.9-5.3-10.1-19.2 1.3-24.3.8-.3 1.8-.6 2.2-.5.4.1 3.5 4.7 6.9 10.2zm152.2-9.2l2.8 1.2-6.8 9.9c-3.7 5.5-7.4 10.1-8 10.3-1.8.6-5.3-5.6-5.3-9.3 0-4.1 3.7-9.5 8-11.6 4.1-2.1 5.5-2.1 9.3-.5zm-341.8 7.3c3.3 2.1 6.5 7.5 6.5 10.8 0 4.2-3.7 10.5-6.2 10.6-.8 0-14.8-18.9-14.8-20.1 0-2.9 10.5-3.9 14.5-1.3zm259.3 3c6.5 3.8 8.8 11.5 5.3 17.2-5.5 8.7-16.3 9.4-21.9 1.5-4.3-6.2-3.3-12.5 2.7-17.6 3.8-3.2 9.7-3.6 13.9-1.1zm56.2-.1c3.7 1.9 7 7.4 7 11.6 0 6.5-6.5 12.9-13 12.9s-13-6.4-13-12.8c0-9.7 10.4-16.2 19-11.7zm-27.5 3.5c3.5 2.1 6.5 7.3 6.5 11s-3 8.9-6.5 11c-8.5 5.2-19.5-.9-19.5-10.9 0-10.2 11-16.4 19.5-11.1zm-125.7 3c3.8 2.3 7.2 7.5 7.2 10.9 0 3.4-3.7 9.5-7 11.4-1.5 1-4.6 1.7-6.9 1.7-5.1 0-10.6-4.5-12.2-10-1-3.3-.9-4.4.8-7.7 3.9-7.6 11.6-10.3 18.1-6.3zm-99.7 3.4c3.4 2.3 6.9 7.8 6.9 10.7 0 2.9-4.2 9.6-7.1 11.3-7.5 4.4-17.7-.3-19.5-9.1-1.3-6.7 6-15.3 13-15.3 1.7 0 4.8 1.1 6.7 2.4zm143.3 12.3l7.9 9.7-2.8 2.2c-5.5 4.4-11.6 4-16.8-1.1-4.4-4.2-5.4-9.2-3.1-14 1.5-3.2 4.8-6.5 6.4-6.5.3 0 4.1 4.4 8.4 9.7zm-73-7.2c10.6 5 10.5 19 0 24-6.3 3-13.6-.1-16.9-7.1-2.9-6.1 0-13.4 6.7-16.7 4.1-2.1 6.2-2.1 10.2-.2zm-35.8 2.1c4.5 2.1 7.4 7 7.4 12.4 0 3.6-.6 4.8-3.9 8.1-3.2 3.3-4.5 3.9-8 3.9-2.3 0-5.5-.7-7.1-1.5-3.5-1.8-7-7.3-7-11.1 0-5.9 7.2-13.4 12.8-13.4 1.3 0 3.9.7 5.8 1.6zm-60.5 7.3c3.5 3.5 3.9 4.4 3.9 8.9s-.4 5.5-3.5 8.7c-5.9 5.8-7.4 5.6-15.5-1.5-3.8-3.4-7-7-7-7.9 0-2.8 3.4-8 6.5-10.1 1.8-1.2 4.7-2 7.4-2 3.7 0 4.9.6 8.2 3.9zm197.9.8c1.5.9 3.8 3.3 4.9 5.3 2.2 3.9 2.8 9 1.1 9-1.2 0-16-13.9-16-15.1 0-1.5 7.1-1 10 .8zm-54 2.8c8.7 4.5 9.8 15.2 2.2 21.5-6.5 5.3-14.8 3.6-19.1-4-2.5-4.4-2.6-7.1-.6-10.9 3.7-7.2 11-9.9 17.5-6.6zm133 3c-3 3.6-11 9.6-10.4 7.8.9-2.5 5.5-7.3 7.9-8.3 3.1-1.3 3.9-1.1 2.5.5zm-51.2 3.5c4 2.4 7.2 7.5 7.2 11.4 0 3.2-3.3 9.2-5.9 10.5-1.3.7-3.8-.6-10.9-6-5.1-3.8-9.2-7.3-9.2-7.7 0-2.1 4.2-7 7.1-8.5 4.5-2.2 7.7-2.1 11.7.3zm27-.6c4.1 2.1 7.3 6 7.5 9.1.2 2.3-.9 3.6-6.8 8.2-10.5 8.1-9.8 8-14.5 3.3-3.4-3.4-4-4.6-4-8.1 0-9.8 9.8-16.7 17.8-12.5zm-60 15.4c-5.3.9-11.9-3.6-13.8-9.4-2.4-7.1-.4-6.8 7.9 1.3 6.5 6.4 7.6 7.9 5.9 8.1zm-158-11.8c4 2.5 7.2 7.5 7.2 11.6 0 4.2-3.6 9.3-8.3 11.7-3.3 1.7-4.4 1.8-7.7.8-2.1-.6-5.2-2.7-6.9-4.6-9.2-10.5 3.8-26.7 15.7-19.5zm75.9 3.6c3.3 2.1 6.3 7.3 6.3 10.9 0 6-7.1 13.5-12.8 13.5-3.3 0-7.5-2.4-10.6-6-8.8-10.5 5.6-26 17.1-18.4zm-35.9 1.4c4.7 2.9 7.4 7.7 6.9 12.2-1.3 10.5-13.4 15.5-21.1 8.7-7.3-6.3-6.4-16 1.9-21 3.9-2.4 8.2-2.4 12.3.1zm94.5 4.5c2.9 1.8 5.7 7.2 5.7 10.7 0 5.6-7.5 12.8-13.4 12.8-8.4 0-15.3-9.9-12.2-17.3 3.6-8.8 12-11.4 19.9-6.2zM122 518.7c4.5 3.1 8.2 9.4 6.6 11-.5.6-14.9-9.2-16.7-11.3-1.8-2.1 7-1.9 10.1.3zm187 5.8c3.3 1.7 6.6 6 7.5 9.8.9 3.6-2.6 10.7-6.4 13-10.7 6.3-23.8-5.1-18.5-16 3.5-7.1 11.1-10.1 17.4-6.8zm-62.2 3.5c3.9 2.4 7.2 7.5 7.2 11.3 0 5.6-4.9 11.5-10.8 13-6.8 1.6-15.2-5.2-15.2-12.5 0-5.1 3-10 7.3-12.2 4.3-2.1 7.5-2 11.5.4zm-79.9 3.9c5.4 3.9 7.3 11.9 4.1 17.1-.9 1.5-4.3.5-17.2-5.3-7.5-3.3-8.1-4.6-4.5-8.9 4.9-6 11.7-7.1 17.6-2.9zm164.6 2.7c3 2 5.5 4 5.5 4.4 0 .7-15.5 8-17 8-1.2 0-2-4-1.3-7.2.5-2.6 5.2-8.8 6.7-8.8.4 0 3.1 1.6 6.1 3.6zm-124.7-.6c3.7 2.3 7.2 7.5 7.2 10.8 0 3.9-3 9-6.5 11.2-5 3.1-10.7 2.7-14.9-1.1-7.1-6.2-6.5-15.2 1.4-20.5 4.2-2.9 8.4-3 12.8-.4zm65.6 9.9c4 2.7 6.6 7 6.6 11.2 0 4.3.2 4.2-13.9 6-8.8 1.1-9.5 1.1-10.8-.6-.7-1.1-1.3-3.4-1.3-5.2 0-10.1 11.3-16.7 19.4-11.4zm-43.1 9.7c2.4 1.8 5.7 6.4 5.7 8 0 .9-21.6-.3-23.5-1.4-1.3-.7-1.3-1.1.1-3.1 4.3-6 12.2-7.6 17.7-3.5z"/></svg>