<?xml version="1.0" encoding="UTF-8" standalone="no"?>
<!-- Created with Inkscape (http://www.inkscape.org/) -->

<svg
   xmlns:dc="http://purl.org/dc/elements/1.1/"
   xmlns:cc="http://creativecommons.org/ns#"
   xmlns:rdf="http://www.w3.org/1999/02/22-rdf-syntax-ns#"
   xmlns:svg="http://www.w3.org/2000/svg"
   xmlns="http://www.w3.org/2000/svg"
   xmlns:sodipodi="http://sodipodi.sourceforge.net/DTD/sodipodi-0.dtd"
   xmlns:inkscape="http://www.inkscape.org/namespaces/inkscape"
   width="36"
   height="50"
   viewBox="0 0 9.525 13.229167"
   version="1.1"
   id="svg6309"
   inkscape:version="0.92.1 r15371"
   sodipodi:docname="building.svg">
  <defs
     id="defs6303" />
  <sodipodi:namedview
     id="base"
     pagecolor="#ffffff"
     bordercolor="#666666"
     borderopacity="1.0"
     inkscape:pageopacity="0.0"
     inkscape:pageshadow="2"
     inkscape:zoom="3.959798"
     inkscape:cx="-7.7738589"
     inkscape:cy="17.961776"
     inkscape:document-units="mm"
     inkscape:current-layer="layer1"
     showgrid="false"
     fit-margin-top="0"
     fit-margin-left="0"
     fit-margin-right="0"
     fit-margin-bottom="0"
     units="px"
     inkscape:window-width="1548"
     inkscape:window-height="868"
     inkscape:window-x="52"
     inkscape:window-y="0"
     inkscape:window-maximized="1" />
  <metadata
     id="metadata6306">
    <rdf:RDF>
      <cc:Work
         rdf:about="">
        <dc:format>image/svg+xml</dc:format>
        <dc:type
           rdf:resource="http://purl.org/dc/dcmitype/StillImage" />
        <dc:title></dc:title>
      </cc:Work>
    </rdf:RDF>
  </metadata>
  <g
     inkscape:label="Layer 1"
     inkscape:groupmode="layer"
     id="layer1"
     transform="translate(75.102879,-189.37128)">
    <path
       style="color:#000000;clip-rule:nonzero;display:inline;overflow:visible;visibility:visible;opacity:1;isolation:auto;mix-blend-mode:normal;color-interpolation:sRGB;color-interpolation-filters:linearRGB;solid-color:#000000;solid-opacity:1;vector-effect:none;fill:#e1e1e1;fill-opacity:1;fill-rule:nonzero;stroke:none;stroke-width:1.09229672;stroke-linecap:round;stroke-linejoin:round;stroke-miterlimit:4;stroke-dasharray:none;stroke-dashoffset:0;stroke-opacity:1;marker:none;paint-order:stroke fill markers;color-rendering:auto;image-rendering:auto;shape-rendering:auto;text-rendering:auto;enable-background:accumulate"
       d="m -71.158239,189.37128 -3.94464,1.88744 v 10.78156 l 3.94464,0.56017 5.478247,-0.78173 v -4.52645 l -2.01362,-0.29655 v -5.94546 z m 0.804907,1.29893 0.829893,0.36512 v 1.40011 l -0.829893,-0.30538 z m -1.691174,0.0308 v 1.45437 l -0.914926,0.3322 v -1.38945 z m 3.068427,0.57511 0.722913,0.31787 v 1.30869 l -0.722913,-0.26607 z m -4.713587,0.13897 v 1.33763 l -0.77654,0.28192 v -1.28217 z m 3.336334,1.61681 0.829893,0.2685 v 1.39981 l -0.829893,-0.20847 z m -1.691174,0.0225 v 1.45436 l -0.914926,0.22675 v -1.38914 z m 3.068427,0.42302 0.722913,0.23376 v 1.30838 l -0.722913,-0.18165 z m -4.713587,0.10179 v 1.33734 l -0.77654,0.1923 v -1.28216 z m 3.336334,1.8146 0.829893,0.17159 v 1.40012 l -0.829893,-0.11216 z m -1.691174,0.0137 v 1.45466 l -0.914926,0.1213 v -1.38944 z m 3.068427,0.27124 0.722913,0.14964 v 1.30839 l -0.722913,-0.0975 z m -4.713587,0.064 v 1.33764 l -0.77654,0.10302 v -1.28218 z m 3.336334,2.01271 0.829893,0.075 v 1.40012 l -0.829893,-0.0156 z m -1.691174,0.005 v 1.45468 l -0.914926,0.0159 v -1.38945 z m 3.068427,0.11917 0.722913,0.0652 v 1.30869 l -0.722913,-0.0134 z m -4.713587,0.0269 v 1.33732 l -0.77654,0.0137 v -1.28218 z m 5.9159,0.082 0.635447,0.0573 v 1.22854 l -0.635447,-0.0119 z m 1.058167,0.0957 0.56322,0.0509 v 1.15752 l -0.56322,-0.0107 z m 0.56322,1.9234 v 1.15752 l -0.56322,0.0551 v -1.19805 z m -0.98594,0.0256 v 1.22852 l -0.635447,0.0622 v -1.27424 z m -7.327887,0.0165 0.77654,0.0204 v 1.33764 l -0.77654,-0.0759 z m 6.21304,0.0125 v 1.30869 l -0.722913,0.0707 v -1.36049 z m -4.706266,0.0274 0.914926,0.0243 v 1.45436 l -0.914926,-0.0893 z m 3.435993,0.005 v 1.40012 l -0.829893,0.0814 v -1.45985 z"
       id="rect4796"
       inkscape:connector-curvature="0" />
  </g>
</svg>
