<?xml version="1.0" encoding="UTF-8" standalone="no"?>
<!-- Generator: Adobe Illustrator 16.0.4, SVG Export Plug-In . SVG Version: 6.00 Build 0)  -->

<svg
   xmlns:dc="http://purl.org/dc/elements/1.1/"
   xmlns:cc="http://creativecommons.org/ns#"
   xmlns:rdf="http://www.w3.org/1999/02/22-rdf-syntax-ns#"
   xmlns:svg="http://www.w3.org/2000/svg"
   xmlns="http://www.w3.org/2000/svg"
   xmlns:xlink="http://www.w3.org/1999/xlink"
   xmlns:sodipodi="http://sodipodi.sourceforge.net/DTD/sodipodi-0.dtd"
   xmlns:inkscape="http://www.inkscape.org/namespaces/inkscape"
   version="1.1"
   id="Layer_1"
   x="0px"
   y="0px"
   width="100"
   height="100"
   viewBox="0 0 100 100"
   enable-background="new 0 0 864 432"
   xml:space="preserve"
   sodipodi:docname="civicrm-logo.svg"
   inkscape:version="0.92.1 unknown"><metadata
     id="metadata33"><rdf:RDF><cc:Work
         rdf:about=""><dc:format>image/svg+xml</dc:format><dc:type
           rdf:resource="http://purl.org/dc/dcmitype/StillImage" /><dc:title></dc:title></cc:Work></rdf:RDF></metadata><defs
     id="defs31"><defs
       id="defs13"><polygon
         points="489.534,244.11 539.255,216.897 543.958,208.892 536.398,204.803 513.05,202.956 482.227,183.806 468.369,181.959 468.369,192.037 482.311,204.131 477.943,253.013 480.463,263.091 491.045,256.54 "
         id="SVGID_1_" /></defs><clipPath
       id="SVGID_2_"><use
         id="use15"
         overflow="visible"
         xlink:href="#SVGID_1_"
         style="overflow:visible"
         x="0"
         y="0"
         width="100%"
         height="100%" /></clipPath></defs><sodipodi:namedview
     pagecolor="#ffffff"
     bordercolor="#666666"
     borderopacity="1"
     objecttolerance="10"
     gridtolerance="10"
     guidetolerance="10"
     inkscape:pageopacity="0"
     inkscape:pageshadow="2"
     inkscape:window-width="1548"
     inkscape:window-height="868"
     id="namedview29"
     showgrid="false"
     inkscape:zoom="5.6568542"
     inkscape:cx="47.942935"
     inkscape:cy="60.161986"
     inkscape:window-x="52"
     inkscape:window-y="0"
     inkscape:window-maximized="1"
     inkscape:current-layer="Layer_1"
     inkscape:snap-global="false"
     fit-margin-top="2"
     fit-margin-left="2"
     fit-margin-right="2"
     fit-margin-bottom="2" /><path
     style="color:#000000;font-style:normal;font-variant:normal;font-weight:normal;font-stretch:normal;font-size:medium;line-height:normal;font-family:sans-serif;font-variant-ligatures:normal;font-variant-position:normal;font-variant-caps:normal;font-variant-numeric:normal;font-variant-alternates:normal;font-feature-settings:normal;text-indent:0;text-align:start;text-decoration:none;text-decoration-line:none;text-decoration-style:solid;text-decoration-color:#000000;letter-spacing:normal;word-spacing:normal;text-transform:none;writing-mode:lr-tb;direction:ltr;text-orientation:mixed;dominant-baseline:auto;baseline-shift:baseline;text-anchor:start;white-space:normal;shape-padding:0;clip-rule:nonzero;display:inline;overflow:visible;visibility:visible;opacity:1;isolation:auto;mix-blend-mode:normal;color-interpolation:sRGB;color-interpolation-filters:linearRGB;solid-color:#000000;solid-opacity:1;vector-effect:none;fill:#086287;fill-opacity:1;fill-rule:nonzero;stroke:none;stroke-width:10.20121479;stroke-linecap:butt;stroke-linejoin:miter;stroke-miterlimit:4;stroke-dasharray:none;stroke-dashoffset:0;stroke-opacity:1;color-rendering:auto;image-rendering:auto;shape-rendering:auto;text-rendering:auto;enable-background:accumulate"
     d="m 14.244366,10.432152 c -1.220016,-0.07849 -2.876457,-0.01564 -4.6209266,0.550553 -1.7444559,0.566205 -3.8055131,1.944501 -4.7714328,4.239448 -0.9659347,2.294962 -0.8028275,4.964738 0.1814629,7.979904 L 26.777118,89.839324 c 0,0 0.811026,3.155255 3.540439,5.606536 1.364707,1.225654 3.590027,2.319089 6.06018,2.006306 2.47017,-0.312772 4.699301,-1.789219 6.81693,-4.150771 L 89.863652,41.260939 c 0,0 2.32677,-2.283226 3.082668,-5.874603 0.377956,-1.795681 0.211311,-4.26664 -1.290813,-6.251952 -1.50211,-1.985312 -3.893117,-3.185181 -6.996312,-3.84561 L 16.248612,10.731144 c 0,0 -0.78423,-0.220437 -2.004246,-0.298992 z m 0.52787,7.237579 68.410569,14.55558 c 2.100533,0.447037 2.72372,1.066899 2.816684,1.189757 0.09307,0.122828 0.101268,0.04782 0.0046,0.509317 -0.194277,0.922968 -1.420716,2.600163 -1.420716,2.600163 L 37.914357,88.565014 c -1.434394,1.599582 -2.282178,1.831011 -2.429024,1.849594 -0.146817,0.01852 -0.07819,0.06772 -0.42683,-0.245366 -0.697248,-0.626193 -1.538244,-2.530065 -1.538244,-2.530065 L 11.776595,20.999845 c -0.666897,-2.042885 -0.442285,-2.890258 -0.385593,-3.024944 0.05663,-0.134669 -0.02202,-0.09899 0.422699,-0.243301 0.889233,-0.288638 2.95896,-0.06195 2.95896,-0.06195 z"
     id="path6"
     inkscape:connector-curvature="0" /><path
     style="color:#000000;font-style:normal;font-variant:normal;font-weight:normal;font-stretch:normal;font-size:medium;line-height:normal;font-family:sans-serif;font-variant-ligatures:normal;font-variant-position:normal;font-variant-caps:normal;font-variant-numeric:normal;font-variant-alternates:normal;font-feature-settings:normal;text-indent:0;text-align:start;text-decoration:none;text-decoration-line:none;text-decoration-style:solid;text-decoration-color:#000000;letter-spacing:normal;word-spacing:normal;text-transform:none;writing-mode:lr-tb;direction:ltr;text-orientation:mixed;dominant-baseline:auto;baseline-shift:baseline;text-anchor:start;white-space:normal;shape-padding:0;clip-rule:nonzero;display:inline;overflow:visible;visibility:visible;opacity:1;isolation:auto;mix-blend-mode:normal;color-interpolation:sRGB;color-interpolation-filters:linearRGB;solid-color:#000000;solid-opacity:1;vector-effect:none;fill:#81c459;fill-opacity:1;fill-rule:nonzero;stroke:none;stroke-width:10.20121479;stroke-linecap:butt;stroke-linejoin:miter;stroke-miterlimit:4;stroke-dasharray:none;stroke-dashoffset:0;stroke-opacity:1;color-rendering:auto;image-rendering:auto;shape-rendering:auto;text-rendering:auto;enable-background:accumulate"
     d="m 21.793311,2.4996781 c -1.832529,0.059512 -4.196664,0.8119833 -5.759139,2.7506998 -1.562492,1.9387172 -2.142574,4.5470179 -2.029008,7.7159541 l 2.509447,70.216892 c 0,0 -0.09368,3.252896 1.851659,6.361222 0.972707,1.55417 2.812767,3.219175 5.274571,3.594049 2.461788,0.374886 5.007765,-0.437139 7.689155,-2.130032 L 90.278108,53.787511 c 0,0 2.862382,-1.565891 4.571431,-4.816797 0.85451,-1.625455 1.371023,-4.041726 0.478375,-6.365367 -0.892648,-2.323627 -2.855293,-4.146363 -5.653969,-5.643645 L 28.224631,4.0977273 c 0,0 -2.766292,-1.717172 -6.43132,-1.5980492 z m 0.230928,7.0891238 c 0.930847,-0.03021 2.855854,0.7629271 2.855854,0.7629271 l 61.447249,32.863975 c 1.89197,1.012196 2.320621,1.780817 2.37953,1.934146 0.05891,0.15333 0.08593,0.09929 -0.136038,0.521675 -0.444137,0.844839 -2.080551,2.119724 -2.080551,2.119724 L 27.542171,85.010136 c -1.817635,1.147565 -2.693202,1.136861 -2.833171,1.115545 -0.139984,-0.02125 -0.08305,0.04995 -0.329919,-0.344358 -0.493603,-0.788677 -0.775316,-2.85174 -0.775316,-2.851724 L 21.094332,12.712721 c -0.07698,-2.147751 0.374434,-2.8994434 0.463951,-3.0105042 0.08958,-0.1111326 5.78e-4,-0.09823 0.466002,-0.1134149 z"
     id="path8"
     inkscape:connector-curvature="0" /><path
     style="color:#000000;font-style:normal;font-variant:normal;font-weight:normal;font-stretch:normal;font-size:medium;line-height:normal;font-family:sans-serif;font-variant-ligatures:normal;font-variant-position:normal;font-variant-caps:normal;font-variant-numeric:normal;font-variant-alternates:normal;font-feature-settings:normal;text-indent:0;text-align:start;text-decoration:none;text-decoration-line:none;text-decoration-style:solid;text-decoration-color:#000000;letter-spacing:normal;word-spacing:normal;text-transform:none;writing-mode:lr-tb;direction:ltr;text-orientation:mixed;dominant-baseline:auto;baseline-shift:baseline;text-anchor:start;white-space:normal;shape-padding:0;clip-rule:nonzero;display:inline;overflow:visible;visibility:visible;opacity:1;isolation:auto;mix-blend-mode:normal;color-interpolation:sRGB;color-interpolation-filters:linearRGB;solid-color:#000000;solid-opacity:1;vector-effect:none;fill:#086287;fill-opacity:1;fill-rule:nonzero;stroke:none;stroke-width:9.66263962;stroke-linecap:butt;stroke-linejoin:miter;stroke-miterlimit:4;stroke-dasharray:none;stroke-dashoffset:0;stroke-opacity:1;color-rendering:auto;image-rendering:auto;shape-rendering:auto;text-rendering:auto;enable-background:accumulate"
     d="m 469.57227,182.81445 c -1.15563,-0.0743 -2.72464,-0.015 -4.37696,0.52149 -1.65231,0.53649 -3.60467,1.84182 -4.51953,4.01562 -0.91485,2.1738 -0.76045,4.70261 0.17188,7.5586 l 20.5957,63.11914 c 0,0 0.7682,2.98868 3.35352,5.31054 1.29265,1.16094 3.40048,2.19666 5.74023,1.90039 2.33975,-0.29626 4.45119,-1.69477 6.45703,-3.93164 l 44.20508,-49.29297 c 0,0 2.20395,-2.1626 2.91992,-5.56445 0.35799,-1.70092 0.20003,-4.04128 -1.22266,-5.92187 -1.42269,-1.88059 -3.68757,-3.01867 -6.62695,-3.64453 L 471.4707,183.09766 c 0,0 -0.74281,-0.20893 -1.89843,-0.28321 z m 0.5,6.85352 64.79882,13.78906 c 1.98963,0.42364 2.57979,1.01039 2.66797,1.12695 0.0882,0.11657 0.0959,0.0452 0.004,0.48243 -0.18403,0.8744 -1.3457,2.46289 -1.3457,2.46289 l -44.20508,49.29297 c -1.35866,1.51513 -2.16169,1.73434 -2.30078,1.75195 -0.13909,0.0176 -0.0741,0.0641 -0.4043,-0.23242 -0.66043,-0.59313 -1.45703,-2.39649 -1.45703,-2.39649 l -20.5957,-63.12109 c -0.63168,-1.93501 -0.41901,-2.73747 -0.36524,-2.86524 0.0538,-0.12776 -0.0208,-0.0957 0.40039,-0.23242 0.84237,-0.27351 2.80274,-0.0586 2.80274,-0.0586 z"
     clip-path="url(#SVGID_2_)"
     id="path18"
     inkscape:connector-curvature="0"
     transform="matrix(1.0557379,0,0,1.0557379,-481.50087,-182.57199)" /></svg>