<?xml version="1.0" encoding="UTF-8" standalone="no"?>
<!-- Created with Inkscape (http://www.inkscape.org/) -->

<svg
   xmlns:dc="http://purl.org/dc/elements/1.1/"
   xmlns:cc="http://creativecommons.org/ns#"
   xmlns:rdf="http://www.w3.org/1999/02/22-rdf-syntax-ns#"
   xmlns:svg="http://www.w3.org/2000/svg"
   xmlns="http://www.w3.org/2000/svg"
   xmlns:sodipodi="http://sodipodi.sourceforge.net/DTD/sodipodi-0.dtd"
   xmlns:inkscape="http://www.inkscape.org/namespaces/inkscape"
   width="190"
   height="18"
   viewBox="0 0 50.270832 4.7625001"
   version="1.1"
   id="svg8"
   inkscape:version="0.92.1 unknown"
   sodipodi:docname="email.svg">
  <defs
     id="defs2" />
  <sodipodi:namedview
     id="base"
     pagecolor="#ffffff"
     bordercolor="#666666"
     borderopacity="1.0"
     inkscape:pageopacity="0.0"
     inkscape:pageshadow="2"
     inkscape:zoom="3.959798"
     inkscape:cx="82.247737"
     inkscape:cy="-5.7894154"
     inkscape:document-units="px"
     inkscape:current-layer="layer1"
     showgrid="false"
     inkscape:window-width="1548"
     inkscape:window-height="868"
     inkscape:window-x="52"
     inkscape:window-y="0"
     inkscape:window-maximized="1"
     units="px"
     fit-margin-top="0"
     fit-margin-left="0"
     fit-margin-right="0"
     fit-margin-bottom="0" />
  <metadata
     id="metadata5">
    <rdf:RDF>
      <cc:Work
         rdf:about="">
        <dc:format>image/svg+xml</dc:format>
        <dc:type
           rdf:resource="http://purl.org/dc/dcmitype/StillImage" />
        <dc:title></dc:title>
      </cc:Work>
    </rdf:RDF>
  </metadata>
  <g
     inkscape:label="Layer 1"
     inkscape:groupmode="layer"
     id="layer1"
     transform="translate(81.351466,-111.02595)">
    <path
       id="path4524"
       style="color:#000000;font-style:normal;font-variant:normal;font-weight:500;font-stretch:normal;font-size:medium;line-height:6.61458302px;font-family:Quicksand;-inkscape-font-specification:'Quicksand Medium';font-variant-ligatures:normal;font-variant-position:normal;font-variant-caps:normal;font-variant-numeric:normal;font-variant-alternates:normal;font-feature-settings:normal;text-indent:0;text-align:start;text-decoration:none;text-decoration-line:none;text-decoration-style:solid;text-decoration-color:#000000;letter-spacing:normal;word-spacing:normal;text-transform:none;writing-mode:lr-tb;direction:ltr;text-orientation:mixed;dominant-baseline:auto;baseline-shift:baseline;text-anchor:start;white-space:normal;shape-padding:0;clip-rule:nonzero;visibility:visible;isolation:auto;mix-blend-mode:normal;color-interpolation:sRGB;color-interpolation-filters:linearRGB;solid-color:#000000;solid-opacity:1;fill:#000000;fill-opacity:1;fill-rule:nonzero;stroke:none;stroke-width:0.39687499;stroke-linecap:round;stroke-linejoin:miter;stroke-miterlimit:4;stroke-dasharray:none;stroke-dashoffset:0;stroke-opacity:1;marker:none;paint-order:stroke fill markers;color-rendering:auto;image-rendering:auto;shape-rendering:auto;text-rendering:auto"
       d="m -32.14725,112.18306 q 0.864306,0 0.864306,1.07667 v 1.31869 q 0,0.10371 -0.06421,0.17286 -0.06421,0.0642 -0.167922,0.0642 -0.103717,0 -0.172861,-0.0691 -0.06421,-0.0692 -0.06421,-0.16792 v -1.31375 q 0,-0.64699 -0.543277,-0.64699 -0.192617,0 -0.350661,0.0889 -0.153106,0.084 -0.242006,0.23213 -0.08396,0.14816 -0.08396,0.32596 v 1.31375 q 0,0.0988 -0.06914,0.16792 -0.06421,0.0691 -0.167923,0.0691 -0.103716,0 -0.167922,-0.0642 -0.06421,-0.0691 -0.06421,-0.17286 v -1.31869 q 0,-0.29139 -0.123473,-0.46425 -0.123472,-0.1778 -0.409927,-0.1778 -0.291395,0 -0.484011,0.18768 -0.187678,0.18273 -0.187678,0.45437 v 1.31869 q 0,0.0988 -0.06914,0.16792 -0.06421,0.0691 -0.167922,0.0691 -0.103717,0 -0.167922,-0.0642 -0.06421,-0.0691 -0.06421,-0.17286 v -2.11385 q 0,-0.0988 0.06421,-0.16792 0.06914,-0.0691 0.167922,-0.0691 0.103717,0 0.167922,0.0691 0.06914,0.0691 0.06914,0.16792 v 0.17286 q 0.128411,-0.19261 0.340783,-0.32102 0.217311,-0.13335 0.469195,-0.13335 0.612422,0 0.795161,0.54327 0.108655,-0.20743 0.360538,-0.37535 0.251884,-0.16792 0.5334,-0.16792 z m -3.508924,1.33843 q 0,0.38524 -0.172861,0.69145 -0.172861,0.30621 -0.474133,0.47907 -0.296334,0.17286 -0.656873,0.17286 -0.360539,0 -0.661811,-0.17286 -0.296333,-0.17286 -0.469194,-0.47907 -0.172861,-0.30621 -0.172861,-0.69145 0,-0.38523 0.172861,-0.69638 0.172861,-0.31115 0.469194,-0.48401 0.301272,-0.17286 0.661811,-0.17286 0.360539,0 0.656873,0.17286 0.301272,0.17286 0.474133,0.48401 0.172861,0.31115 0.172861,0.69638 z m -0.469194,0 q 0,-0.2667 -0.113595,-0.47413 -0.108655,-0.21237 -0.301272,-0.32597 -0.187678,-0.11853 -0.419806,-0.11853 -0.232127,0 -0.424744,0.11853 -0.187678,0.1136 -0.301272,0.32597 -0.108656,0.20743 -0.108656,0.47413 0,0.26177 0.108656,0.4692 0.113594,0.20743 0.301272,0.32597 0.192617,0.11359 0.424744,0.11359 0.232128,0 0.419806,-0.11359 0.192617,-0.11854 0.301272,-0.32597 0.113595,-0.20743 0.113595,-0.4692 z m -3.391396,-1.35325 q 0.390172,0 0.646994,0.12347 0.261761,0.12347 0.261761,0.31609 0,0.084 -0.05433,0.15311 -0.05433,0.0642 -0.138289,0.0642 -0.06421,0 -0.103716,-0.0198 -0.03457,-0.0198 -0.09878,-0.0642 -0.02963,-0.0296 -0.09384,-0.0691 -0.05927,-0.0296 -0.167922,-0.0494 -0.108656,-0.0198 -0.197556,-0.0198 -0.256822,0 -0.454377,0.11853 -0.197556,0.11854 -0.306212,0.33091 -0.108655,0.20743 -0.108655,0.46426 0,0.26176 0.103717,0.46919 0.108655,0.20743 0.301272,0.32597 0.192616,0.11853 0.439561,0.11853 0.256822,0 0.414867,-0.079 0.03457,-0.0198 0.09384,-0.0642 0.04939,-0.0395 0.08396,-0.0593 0.03951,-0.0198 0.09384,-0.0198 0.09878,0 0.153106,0.0642 0.05927,0.0593 0.05927,0.15804 0,0.10372 -0.13335,0.20743 -0.128411,0.0988 -0.350661,0.16299 -0.217312,0.0642 -0.469195,0.0642 -0.375355,0 -0.661811,-0.17286 -0.286455,-0.1778 -0.4445,-0.48401 -0.153105,-0.31115 -0.153105,-0.69144 0,-0.3803 0.162983,-0.68651 0.162983,-0.31115 0.454378,-0.48401 0.291394,-0.1778 0.66675,-0.1778 z m -2.048172,2.6423 q -0.118533,0 -0.182739,-0.0642 -0.05927,-0.0642 -0.05927,-0.18768 v -0.0938 q 0,-0.11853 0.05927,-0.18274 0.06421,-0.0642 0.182739,-0.0642 h 0.04939 q 0.123472,0 0.182739,0.0642 0.06421,0.0642 0.06421,0.18274 v 0.0938 q 0,0.25188 -0.246945,0.25188 z m -2.66978,-0.40005 q -0.04445,-0.0691 -0.04445,-0.13335 0,-0.0988 0.103717,-0.16792 0.04939,-0.0346 0.113594,-0.0346 0.0889,0 0.162984,0.0741 0.148166,0.16793 0.316089,0.25189 0.172861,0.084 0.409927,0.084 0.187678,-0.005 0.330906,-0.084 0.143228,-0.084 0.143228,-0.2667 0,-0.16793 -0.148167,-0.25683 -0.143228,-0.0889 -0.424744,-0.16298 -0.276578,-0.0741 -0.459317,-0.1531 -0.182739,-0.084 -0.31115,-0.23707 -0.123472,-0.15805 -0.123472,-0.40993 0,-0.22225 0.123472,-0.39017 0.128411,-0.16792 0.335844,-0.26176 0.212373,-0.0938 0.459317,-0.0938 0.237067,0 0.469194,0.0889 0.237067,0.0889 0.385234,0.27164 0.05927,0.0691 0.05927,0.14323 0,0.079 -0.07902,0.1531 -0.04939,0.0445 -0.123472,0.0445 -0.0889,0 -0.143228,-0.0593 -0.103716,-0.11853 -0.256822,-0.18273 -0.148167,-0.0642 -0.330905,-0.0642 -0.187678,0 -0.321028,0.079 -0.128411,0.0741 -0.128411,0.25682 0.0049,0.17287 0.148166,0.25683 0.148167,0.084 0.449439,0.16298 0.261761,0.0691 0.434622,0.14817 0.172861,0.079 0.291395,0.23706 0.118533,0.15311 0.118533,0.40499 0,0.23213 -0.13335,0.40499 -0.13335,0.16792 -0.350661,0.26176 -0.212372,0.0889 -0.454378,0.0889 -0.31115,0 -0.57785,-0.10865 -0.261761,-0.10866 -0.4445,-0.34573 z m -1.581832,-2.24225 q 0.335844,0 0.607483,0.17286 0.271639,0.17286 0.424745,0.47907 0.158044,0.30621 0.158044,0.69145 0,0.38523 -0.158044,0.69638 -0.153106,0.31115 -0.424745,0.48401 -0.271639,0.17286 -0.597605,0.17286 -0.256823,0 -0.479073,-0.11359 -0.22225,-0.1136 -0.360538,-0.28152 v 0.14323 q 0,0.0988 -0.06914,0.16792 -0.06421,0.0691 -0.167922,0.0691 -0.09878,0 -0.167922,-0.0642 -0.06421,-0.0691 -0.06421,-0.17286 v -3.21522 q 0,-0.10371 0.06421,-0.16792 0.06421,-0.0691 0.167922,-0.0691 0.103717,0 0.167922,0.0691 0.06914,0.0691 0.06914,0.16792 v 1.20509 q 0.118533,-0.1778 0.345722,-0.30621 0.227189,-0.12841 0.484011,-0.12841 z m -0.05433,2.26201 q 0.227189,0 0.409928,-0.11853 0.182739,-0.12348 0.281516,-0.33091 0.103717,-0.21237 0.103717,-0.46919 0,-0.25683 -0.103717,-0.46426 -0.09878,-0.20743 -0.281516,-0.32597 -0.182739,-0.11853 -0.409928,-0.11853 -0.232128,0 -0.414867,0.11853 -0.182738,0.11854 -0.286455,0.32597 -0.09878,0.2025 -0.09878,0.46426 0,0.26176 0.09878,0.46919 0.103717,0.20743 0.286455,0.33091 0.182739,0.11853 0.414867,0.11853 z m -2.174499,-2.23732 q 0.103717,0 0.167922,0.0691 0.06914,0.0642 0.06914,0.17286 v 2.14348 q 0,0.0988 -0.06914,0.16792 -0.06421,0.0691 -0.167922,0.0691 -0.103717,0 -0.167922,-0.0642 -0.06421,-0.0691 -0.06421,-0.17286 v -0.12841 q -0.128411,0.17286 -0.350661,0.29633 -0.22225,0.11853 -0.479072,0.11853 -0.335844,0 -0.612422,-0.17286 -0.271639,-0.17286 -0.429683,-0.47907 -0.153106,-0.31115 -0.153106,-0.69638 0,-0.38524 0.153106,-0.69145 0.158044,-0.31115 0.429683,-0.48401 0.271639,-0.17286 0.597605,-0.17286 0.261761,0 0.484011,0.10865 0.227189,0.10866 0.360539,0.27658 v -0.11853 q 0,-0.10372 0.06421,-0.17286 0.06421,-0.0691 0.167922,-0.0691 z m -1.007533,2.23732 q 0.232128,0 0.409928,-0.11853 0.182738,-0.11854 0.281516,-0.32597 0.103717,-0.20743 0.103717,-0.46919 0,-0.25683 -0.103717,-0.46426 -0.09878,-0.20743 -0.281516,-0.32597 -0.1778,-0.12347 -0.409928,-0.12347 -0.232128,0 -0.414867,0.11853 -0.1778,0.11854 -0.281517,0.32597 -0.09878,0.20743 -0.09878,0.4692 0,0.26176 0.09878,0.46919 0.103717,0.20743 0.281517,0.32597 0.182739,0.11853 0.414867,0.11853 z m -1.836804,0.14817 q 0,0.0988 -0.06914,0.16792 -0.06914,0.0691 -0.167923,0.0691 -0.09878,0 -0.167922,-0.0691 -0.06421,-0.0692 -0.06421,-0.16792 v -3.18065 q 0,-0.0988 0.06914,-0.16792 0.06914,-0.0691 0.167922,-0.0691 0.09878,0 0.162984,0.0691 0.06914,0.0691 0.06914,0.16792 z m -2.103194,-2.41018 q 0.889,0 0.889,1.0668 v 1.34338 q 0,0.0988 -0.06915,0.16792 -0.0642,0.0691 -0.167922,0.0691 -0.09878,0 -0.167922,-0.0691 -0.06421,-0.0692 -0.06421,-0.16792 v -1.33844 q 0,-0.2914 -0.13335,-0.46426 -0.13335,-0.17286 -0.434622,-0.17286 -0.197555,0 -0.360539,0.0889 -0.158044,0.084 -0.251883,0.23213 -0.0889,0.14323 -0.0889,0.31609 v 1.33844 q 0,0.0988 -0.06914,0.16792 -0.06421,0.0691 -0.167923,0.0691 -0.103716,0 -0.167922,-0.0642 -0.06421,-0.0691 -0.06421,-0.17286 v -2.11385 q 0,-0.0988 0.06421,-0.16792 0.06914,-0.0691 0.167922,-0.0691 0.103717,0 0.167923,0.0691 0.06914,0.0691 0.06914,0.16792 v 0.17286 q 0.128411,-0.19755 0.3556,-0.3309 0.232128,-0.13829 0.493889,-0.13829 z m -1.99315,2.41018 q 0,0.0988 -0.06914,0.16792 -0.06421,0.0691 -0.167922,0.0691 -0.09878,0 -0.167922,-0.0691 -0.06421,-0.0692 -0.06421,-0.16792 v -2.13854 q 0,-0.0988 0.06421,-0.16792 0.06914,-0.0692 0.167922,-0.0692 0.103717,0 0.167922,0.0692 0.06914,0.0691 0.06914,0.16792 z m -0.237067,-2.70158 q -0.143228,0 -0.207433,-0.0494 -0.05927,-0.0543 -0.05927,-0.16793 v -0.079 q 0,-0.11853 0.06421,-0.16792 0.06914,-0.0494 0.207434,-0.0494 0.138289,0 0.197555,0.0543 0.06421,0.0494 0.06421,0.16298 v 0.079 q 0,0.11854 -0.06421,0.16793 -0.06421,0.0494 -0.202494,0.0494 z m -0.748088,1.64465 q 0,0.38524 -0.172861,0.69145 -0.172861,0.30621 -0.474133,0.47907 -0.296333,0.17286 -0.656872,0.17286 -0.360539,0 -0.661811,-0.17286 -0.296334,-0.17286 -0.469195,-0.47907 -0.172861,-0.30621 -0.172861,-0.69145 0,-0.38523 0.172861,-0.69638 0.172861,-0.31115 0.469195,-0.48401 0.301272,-0.17286 0.661811,-0.17286 0.360539,0 0.656872,0.17286 0.301272,0.17286 0.474133,0.48401 0.172861,0.31115 0.172861,0.69638 z m -0.469194,0 q 0,-0.2667 -0.113595,-0.47413 -0.108655,-0.21237 -0.301272,-0.32597 -0.187678,-0.11853 -0.419805,-0.11853 -0.232128,0 -0.424745,0.11853 -0.187678,0.1136 -0.301272,0.32597 -0.108656,0.20743 -0.108656,0.47413 0,0.26177 0.108656,0.4692 0.113594,0.20743 0.301272,0.32597 0.192617,0.11359 0.424745,0.11359 0.232127,0 0.419805,-0.11359 0.192617,-0.11854 0.301272,-0.32597 0.113595,-0.20743 0.113595,-0.4692 z m -3.505221,2.26695 q -0.09384,0 -0.153106,-0.0642 -0.06421,-0.0642 -0.06421,-0.15311 v -0.0444 q 0,-0.16298 0.202494,-0.21237 0.316089,-0.0889 0.316089,-0.49389 v -2.35585 q 0,-0.0988 0.06421,-0.16792 0.06914,-0.0691 0.172861,-0.0691 0.09878,0 0.162983,0.0691 0.06914,0.0691 0.06914,0.16792 v 2.47439 q 0,0.25682 -0.108656,0.44943 -0.103717,0.19262 -0.281517,0.29634 -0.1778,0.10371 -0.380294,0.10371 z m 0.5334,-3.9116 q -0.143228,0 -0.207433,-0.0494 -0.05927,-0.0543 -0.05927,-0.16793 v -0.079 q 0,-0.11853 0.06421,-0.16792 0.06914,-0.0494 0.207433,-0.0494 0.138289,0 0.197555,0.0543 0.06421,0.0494 0.06421,0.16298 v 0.079 q 0,0.11854 -0.06421,0.16793 -0.06421,0.0494 -0.202494,0.0494 z m -1.480973,0.80998 v 1.47179 q 0,0.24695 0.22225,0.24695 0.03457,0 0.09384,-0.0148 0.05927,-0.0198 0.09384,-0.0198 0.06421,0 0.108656,0.0543 0.04445,0.0543 0.04445,0.13829 0,0.10372 -0.118533,0.1778 -0.118534,0.0741 -0.2667,0.0741 -0.162984,0 -0.301273,-0.0346 -0.13335,-0.0346 -0.242005,-0.17286 -0.103717,-0.14323 -0.103717,-0.42968 v -1.49155 h -0.286455 q -0.09384,0 -0.158045,-0.0593 -0.05927,-0.0642 -0.05927,-0.15805 0,-0.0938 0.05927,-0.1531 0.06421,-0.0593 0.158045,-0.0593 h 0.286455 v -0.41487 q 0,-0.0988 0.06421,-0.16792 0.06914,-0.0691 0.172861,-0.0691 0.09878,0 0.162983,0.0691 0.06914,0.0691 0.06914,0.16792 v 0.41487 h 0.409927 q 0.09384,0 0.153106,0.0642 0.06421,0.0593 0.06421,0.15311 0,0.0938 -0.06421,0.15311 -0.05927,0.0593 -0.153106,0.0593 z m -1.543557,-1.10137 q -0.162983,0 -0.242006,0.0988 -0.07408,0.0988 -0.07408,0.242 v 0.34573 h 0.48895 q 0.09878,0 0.158044,0.0642 0.06421,0.0593 0.06421,0.15311 0,0.0938 -0.06421,0.1531 -0.05927,0.0593 -0.158044,0.0593 h -0.48895 v 1.87678 q 0,0.0988 -0.06914,0.16792 -0.06421,0.0691 -0.167923,0.0691 -0.09878,0 -0.167922,-0.0691 -0.0642,-0.0692 -0.0642,-0.16792 v -1.87678 h -0.306211 q -0.09384,0 -0.158045,-0.0593 -0.0642,-0.0593 -0.0642,-0.1531 0,-0.0938 0.0642,-0.15311 0.06421,-0.0642 0.158045,-0.0642 h 0.306211 v -0.34573 q 0,-0.34572 0.22225,-0.54821 0.22225,-0.20744 0.627239,-0.20744 0.167922,0 0.296333,0.0642 0.128411,0.0593 0.128411,0.18274 0,0.0938 -0.05927,0.15804 -0.05433,0.0593 -0.13335,0.0593 -0.01975,0 -0.108655,-0.0198 -0.108656,-0.0296 -0.187678,-0.0296 z m -1.651132,1.83727 q -0.0049,0.0889 -0.07408,0.1531 -0.06914,0.0593 -0.162984,0.0593 h -1.738488 q 0.03457,0.36054 0.271639,0.57785 0.242005,0.21731 0.587727,0.21731 0.237067,0 0.385234,-0.0691 0.148166,-0.0691 0.261761,-0.1778 0.07408,-0.0445 0.143227,-0.0445 0.08396,0 0.138289,0.0593 0.05927,0.0593 0.05927,0.13829 0,0.10372 -0.09878,0.18768 -0.143228,0.14323 -0.380294,0.242 -0.237067,0.0988 -0.484011,0.0988 -0.40005,0 -0.706261,-0.16792 -0.301272,-0.16792 -0.469195,-0.46919 -0.162983,-0.30128 -0.162983,-0.68157 0,-0.41487 0.167922,-0.72602 0.172861,-0.31609 0.449439,-0.48401 0.281517,-0.16792 0.602544,-0.16792 0.316089,0 0.592667,0.16298 0.276578,0.16299 0.4445,0.44944 0.167922,0.28646 0.172861,0.64206 z m -1.210028,-0.81986 q -0.276577,0 -0.479072,0.15805 -0.202494,0.1531 -0.2667,0.47907 h 1.456972 v -0.0395 q -0.02469,-0.26176 -0.237066,-0.42969 -0.207434,-0.16792 -0.474134,-0.16792 z m -1.758939,1.97556 q 0,0.0988 -0.06914,0.16792 -0.06914,0.0691 -0.167923,0.0691 -0.09878,0 -0.167922,-0.0691 -0.06421,-0.0692 -0.06421,-0.16792 v -3.18065 q 0,-0.0988 0.06914,-0.16792 0.06915,-0.0691 0.167922,-0.0691 0.09878,0 0.162984,0.0691 0.06914,0.0691 0.06914,0.16792 z m -2.325213,-0.0346 q -0.22225,0 -0.380294,-0.12841 -0.153106,-0.13335 -0.148167,-0.34078 -0.143227,0.24201 -0.3556,0.3556 -0.212372,0.11359 -0.449438,0.11359 -0.197556,0 -0.365478,-0.10371 -0.162984,-0.10372 -0.2667,-0.28646 -0.09878,-0.18768 -0.09878,-0.42474 0,-0.31115 0.158044,-0.647 0.162984,-0.34078 0.434623,-0.56303 0.276577,-0.22225 0.592666,-0.22225 0.202495,0 0.3556,0.10866 0.153106,0.10865 0.217311,0.29633 l 0.03457,-0.20743 q 0.0099,-0.0691 0.06421,-0.11854 0.05433,-0.0543 0.158045,-0.0543 0.207433,0 0.207433,0.17287 0,0.0444 -0.0049,0.0691 l -0.212372,1.34338 q -0.0049,0.0247 -0.0049,0.0741 0,0.11853 0.05927,0.18274 0.06421,0.0593 0.153105,0.0593 0.207433,0 0.385233,-0.19756 0.182739,-0.20249 0.286456,-0.51858 0.108655,-0.31609 0.108655,-0.647 0,-0.36547 -0.172861,-0.64205 -0.167922,-0.27658 -0.484011,-0.42969 -0.316089,-0.15804 -0.735894,-0.15804 -0.651933,0 -1.180394,0.26176 -0.523523,0.26176 -0.829734,0.75565 -0.301272,0.48895 -0.301272,1.15076 0,0.39511 0.158044,0.7359 0.158045,0.33584 0.498828,0.54821 0.340784,0.21238 0.854428,0.21238 0.365478,0 0.597605,-0.0692 0.232128,-0.0691 0.513645,-0.22225 0.04939,-0.0247 0.07902,-0.0247 0.08396,0 0.123472,0.0988 0.0099,0.0198 0.0099,0.0543 0,0.0988 -0.143228,0.16792 -0.301272,0.15311 -0.558094,0.23213 -0.256822,0.084 -0.6223,0.084 -0.632178,0 -1.047044,-0.25682 -0.414867,-0.25682 -0.607484,-0.66675 -0.192616,-0.41487 -0.192616,-0.89394 0,-0.75071 0.350661,-1.31374 0.350661,-0.56797 0.953205,-0.86925 0.602545,-0.30621 1.343378,-0.30621 0.543278,0 0.93345,0.20744 0.390172,0.20743 0.587728,0.55809 0.202494,0.35066 0.202494,0.78528 0,0.40993 -0.158044,0.8001 -0.158045,0.39018 -0.449439,0.63712 -0.286456,0.24694 -0.651934,0.24694 z m -1.224844,-0.36547 q 0.187678,0 0.360539,-0.11854 0.172861,-0.12347 0.286455,-0.30621 0.113595,-0.18768 0.13335,-0.36054 0.04445,-0.15804 0.04445,-0.28151 0,-0.22719 -0.128411,-0.33585 -0.128411,-0.11359 -0.330905,-0.11359 -0.22225,0 -0.395111,0.16792 -0.172861,0.16792 -0.271639,0.41487 -0.09384,0.24694 -0.09384,0.47413 0,0.21731 0.108656,0.34078 0.108655,0.11854 0.286456,0.11854 z m -2.274204,-0.65688 q 0,0.38524 -0.172861,0.69145 -0.172861,0.30621 -0.474133,0.47907 -0.296333,0.17286 -0.656872,0.17286 -0.360539,0 -0.661811,-0.17286 -0.296334,-0.17286 -0.469195,-0.47907 -0.172861,-0.30621 -0.172861,-0.69145 0,-0.38523 0.172861,-0.69638 0.172861,-0.31115 0.469195,-0.48401 0.301272,-0.17286 0.661811,-0.17286 0.360539,0 0.656872,0.17286 0.301272,0.17286 0.474133,0.48401 0.172861,0.31115 0.172861,0.69638 z m -0.469194,0 q 0,-0.2667 -0.113595,-0.47413 -0.108655,-0.21237 -0.301272,-0.32597 -0.187678,-0.11853 -0.419805,-0.11853 -0.232128,0 -0.424745,0.11853 -0.187677,0.1136 -0.301272,0.32597 -0.108655,0.20743 -0.108655,0.47413 0,0.26177 0.108655,0.4692 0.113595,0.20743 0.301272,0.32597 0.192617,0.11359 0.424745,0.11359 0.232127,0 0.419805,-0.11359 0.192617,-0.11854 0.301272,-0.32597 0.113595,-0.20743 0.113595,-0.4692 z m -2.803437,-1.93604 q -0.162983,0 -0.242006,0.0988 -0.07408,0.0988 -0.07408,0.242 v 0.34573 h 0.48895 q 0.09878,0 0.158045,0.0642 0.06421,0.0593 0.06421,0.15311 0,0.0938 -0.06421,0.1531 -0.05927,0.0593 -0.158045,0.0593 h -0.48895 v 1.87678 q 0,0.0988 -0.06914,0.16792 -0.06421,0.0691 -0.167923,0.0691 -0.09878,0 -0.167922,-0.0691 -0.06421,-0.0692 -0.06421,-0.16792 v -1.87678 h -0.306211 q -0.09384,0 -0.158045,-0.0593 -0.06421,-0.0593 -0.06421,-0.1531 0,-0.0938 0.06421,-0.15311 0.06421,-0.0642 0.158045,-0.0642 h 0.306211 v -0.34573 q 0,-0.34572 0.22225,-0.54821 0.22225,-0.20744 0.627239,-0.20744 0.167922,0 0.296333,0.0642 0.128411,0.0593 0.128411,0.18274 0,0.0938 -0.05927,0.15804 -0.05433,0.0593 -0.13335,0.0593 -0.01976,0 -0.108655,-0.0198 -0.108656,-0.0296 -0.187678,-0.0296 z m -2.7008,0.58279 q 0.889,0 0.889,1.0668 v 1.34338 q 0,0.0988 -0.06915,0.16792 -0.06421,0.0691 -0.167922,0.0691 -0.09878,0 -0.167922,-0.0691 -0.06421,-0.0692 -0.06421,-0.16792 v -1.33844 q 0,-0.2914 -0.13335,-0.46426 -0.13335,-0.17286 -0.434622,-0.17286 -0.197555,0 -0.360539,0.0889 -0.158044,0.084 -0.251883,0.23213 -0.0889,0.14323 -0.0889,0.31609 v 1.33844 q 0,0.0988 -0.06914,0.16792 -0.06421,0.0691 -0.167923,0.0691 -0.103716,0 -0.167922,-0.0642 -0.06421,-0.0691 -0.06421,-0.17286 v -2.11385 q 0,-0.0988 0.06421,-0.16792 0.06914,-0.0691 0.167922,-0.0691 0.103717,0 0.167923,0.0691 0.06914,0.0691 0.06914,0.16792 v 0.17286 q 0.128411,-0.19755 0.3556,-0.3309 0.232128,-0.13829 0.493889,-0.13829 z m -1.99315,2.41018 q 0,0.0988 -0.06914,0.16792 -0.06421,0.0691 -0.167922,0.0691 -0.09878,0 -0.167922,-0.0691 -0.06421,-0.0692 -0.06421,-0.16792 v -2.13854 q 0,-0.0988 0.06421,-0.16792 0.06914,-0.0692 0.167922,-0.0692 0.103717,0 0.167922,0.0692 0.06914,0.0691 0.06914,0.16792 z m -0.237067,-2.70158 q -0.143228,0 -0.207433,-0.0494 -0.05927,-0.0543 -0.05927,-0.16793 v -0.079 q 0,-0.11853 0.06421,-0.16792 0.06914,-0.0494 0.207433,-0.0494 0.138289,0 0.197555,0.0543 0.06421,0.0494 0.06421,0.16298 v 0.079 q 0,0.11854 -0.06421,0.16793 -0.06421,0.0494 -0.202494,0.0494 z" />
  </g>
</svg>
