<?xml version="1.0" encoding="UTF-8" standalone="no"?>
<!-- Created with Inkscape (http://www.inkscape.org/) -->

<svg
   xmlns:dc="http://purl.org/dc/elements/1.1/"
   xmlns:cc="http://creativecommons.org/ns#"
   xmlns:rdf="http://www.w3.org/1999/02/22-rdf-syntax-ns#"
   xmlns:svg="http://www.w3.org/2000/svg"
   xmlns="http://www.w3.org/2000/svg"
   xmlns:sodipodi="http://sodipodi.sourceforge.net/DTD/sodipodi-0.dtd"
   xmlns:inkscape="http://www.inkscape.org/namespaces/inkscape"
   width="100"
   height="100"
   viewBox="0 0 26.458333 26.458333"
   version="1.1"
   id="svg8"
   inkscape:version="0.92.1 unknown"
   sodipodi:docname="megaphone.svg">
  <defs
     id="defs2" />
  <sodipodi:namedview
     id="base"
     pagecolor="#ffffff"
     bordercolor="#666666"
     borderopacity="1.0"
     inkscape:pageopacity="0.0"
     inkscape:pageshadow="2"
     inkscape:zoom="1.4"
     inkscape:cx="99.089212"
     inkscape:cy="71.768623"
     inkscape:document-units="px"
     inkscape:current-layer="layer1"
     showgrid="false"
     units="px"
     inkscape:window-width="1548"
     inkscape:window-height="868"
     inkscape:window-x="52"
     inkscape:window-y="0"
     inkscape:window-maximized="1" />
  <metadata
     id="metadata5">
    <rdf:RDF>
      <cc:Work
         rdf:about="">
        <dc:format>image/svg+xml</dc:format>
        <dc:type
           rdf:resource="http://purl.org/dc/dcmitype/StillImage" />
        <dc:title></dc:title>
      </cc:Work>
    </rdf:RDF>
  </metadata>
  <g
     inkscape:label="Layer 1"
     inkscape:groupmode="layer"
     id="layer1"
     transform="translate(0,-270.54167)">
    <path
       style="fill:#000000;stroke-width:0.08124146"
       d="m 11.37959,293.85461 c -0.0782,-0.0179 -0.14217,-0.0622 -0.14217,-0.0984 0,-0.0362 -0.078,-0.0862 -0.17321,-0.11111 -0.12744,-0.0333 -0.16163,-0.0896 -0.12939,-0.21292 0.0342,-0.13087 -0.003,-0.17932 -0.172057,-0.22103 -0.118744,-0.0294 -0.263671,-0.12062 -0.322055,-0.20276 -0.05839,-0.0821 -0.156764,-0.14936 -0.21862,-0.14936 -0.165629,0 -0.2312192,-0.1528 -0.122048,-0.28434 0.136863,-0.16491 0.02331,-0.29329 -0.2080862,-0.23522 -0.153414,0.0385 -0.198124,0.0177 -0.198124,-0.0923 0,-0.0781 0.06398,-0.19059 0.142173,-0.24995 0.132875,-0.10087 0.131235,-0.10809 -0.02509,-0.11051 -0.092,-0.002 -0.230051,-0.0485 -0.306791,-0.10461 -0.125115,-0.0915 -0.08688,-0.14597 0.37037,-0.52776 0.2804432,-0.23416 0.6520142,-0.53556 0.8257212,-0.66977 0.173704,-0.13422 0.289277,-0.24403 0.256817,-0.24403 -0.0325,0 0.0329,-0.10925 0.14527,-0.24278 0.27247,-0.32381 0.46404,-1.01572 0.52965,-1.91296 l 0.0538,-0.73614 0.40544,-0.46221 c 0.223,-0.25422 0.45114,-0.46267 0.507,-0.46323 0.16878,-0.002 0.0872,-0.39438 -0.23275,-1.12027 -0.17751,-0.40272 -0.18108,-0.42435 -0.0701,-0.42435 0.14958,0 0.55676,0.74054 0.77678,1.41276 0.29489,0.9009 0.29677,0.90237 0.99454,0.77767 0.31432,-0.0562 0.60937,-0.12554 0.65567,-0.15415 0.0566,-0.035 0.0455,-0.18069 -0.0339,-0.44429 -0.11538,-0.38338 -0.10305,-0.53585 0.0433,-0.53585 0.074,0 0.26863,0.3805 0.36362,0.71087 0.0291,0.10129 0.11694,0.18279 0.19697,0.18279 0.20807,0 0.43096,0.27996 0.39891,0.50105 -0.0151,0.10423 0.0192,0.22606 0.0762,0.27074 0.057,0.0447 0.12627,0.28232 0.15396,0.52807 0.0277,0.24576 0.0767,0.48339 0.10899,0.52807 0.10977,0.15206 0.16363,0.63222 0.082,0.73063 -0.0556,0.067 -0.0404,0.18023 0.0482,0.35777 0.18004,0.36091 0.0924,0.62308 -0.27334,0.81786 -0.16685,0.0888 -0.5015,0.3424 -0.74366,0.56346 -0.36002,0.32863 -0.58965,0.45366 -1.25925,0.68559 -0.45041,0.15601 -0.89615,0.3059 -0.99052,0.33309 -0.0962,0.0277 -0.39404,0.3786 -0.67817,0.79901 -0.53483,0.79136 -0.60871,0.86303 -0.836,0.81089 z m -6.8445922,-3.02664 c -0.02837,-0.0894 -0.02555,-0.24445 0.0062,-0.34464 0.04958,-0.15621 0.04026,-0.16758 -0.06547,-0.0798 -0.0678,0.0563 -0.181856,0.0798 -0.253446,0.0524 -0.1505,-0.0578 -0.377881,-0.47686 -0.377881,-0.69651 0,-0.0825 -0.0341,-0.15 -0.07577,-0.15 -0.04167,0 -0.101331,-0.0806 -0.13258,-0.17901 -0.03125,-0.0985 -0.106828,-0.22902 -0.167956,-0.29014 -0.06113,-0.0611 -0.111142,-0.16338 -0.111142,-0.22721 0,-0.0638 -0.0457,-0.10692 -0.101554,-0.0958 -0.05685,0.0114 -0.112743,-0.0767 -0.126977,-0.20018 -0.01403,-0.12173 -0.13231,-0.31044 -0.264034,-0.42127 -0.164423,-0.13836 -0.23861,-0.2751 -0.23861,-0.4398 0,-0.13147 -0.05484,-0.28454 -0.121863,-0.34016 -0.06793,-0.0564 -0.121862,-0.23347 -0.121862,-0.40015 0,-0.20675 -0.07793,-0.40498 -0.252557,-0.64244 -0.166665,-0.22663 -0.237493,-0.40103 -0.208262,-0.51282 0.05719,-0.2187 -0.10429,-0.47563 -0.298937,-0.47563 -0.1293,0 -0.144128,-0.0419 -0.09936,-0.28053 0.04511,-0.24045 0.02341,-0.29967 -0.151856,-0.41451 -0.14895,-0.0976 -0.186358,-0.17034 -0.137744,-0.26785 0.08228,-0.16504 0.06582,-0.50811 -0.03194,-0.66604 -0.04009,-0.0648 -0.0781,-0.29351 -0.08447,-0.50832 -0.0064,-0.2148 -0.05334,-0.43233 -0.104398,-0.48339 -0.05106,-0.0511 -0.09283,-0.17243 -0.09283,-0.26973 0,-0.0973 -0.05484,-0.22242 -0.121862,-0.27805 -0.06702,-0.0556 -0.121862,-0.16246 -0.121862,-0.23742 0,-0.075 -0.03995,-0.17623 -0.08877,-0.22505 -0.0642,-0.0642 -0.0642,-0.13468 0,-0.25464 0.114115,-0.21322 0.114097,-0.42606 -3.4e-5,-0.39996 -0.09968,0.0228 -0.17438,-0.0991 -0.300896,-0.49111 -0.06695,-0.20743 -0.05917,-0.33285 0.03455,-0.55715 0.06652,-0.15921 0.109665,-0.29885 0.09588,-0.31031 -0.01379,-0.0114 -0.102316,-0.0609 -0.19673,-0.10998 -0.351852,-0.18272 -0.270209,-1.12935 0.163157,-1.89177 0.18577,-0.32683 0.308909,-0.42269 0.963778,-0.75027 1.040576,-0.52053 1.366589,-0.59438 2.069419,-0.46878 0.652569,0.11662 1.021981,0.31454 1.186311,0.63557 0.162497,0.31745 0.244425,0.88236 0.151934,1.04764 -0.05483,0.098 -0.03531,0.21232 0.06661,0.39015 0.07929,0.13836 0.190337,0.57163 0.246765,0.96282 0.05643,0.3912 0.120737,0.69313 0.142909,0.67095 0.08409,-0.0841 0.260666,0.14197 0.183512,0.23493 -0.05323,0.0641 0.127563,0.25512 0.587998,0.62114 l 0.664858,0.52851 v 0.45205 c 0,0.24862 0.03923,0.5035 0.08718,0.5664 0.156908,0.20582 0.111998,0.5021 -0.121004,0.79829 -0.329062,0.41829 -0.575483,0.93777 -0.575483,1.21318 0,0.20018 0.04953,0.25796 0.31074,0.36247 0.170904,0.0684 0.446083,0.14973 0.611509,0.18076 0.172317,0.0323 0.336843,0.12382 0.385223,0.21422 0.100631,0.18803 0.0276,0.58659 -0.131684,0.71879 -0.09719,0.0807 -0.09651,0.12044 0.0047,0.27493 0.06509,0.0993 0.141696,0.35098 0.170237,0.55921 0.04773,0.34826 0.03215,0.39703 -0.194513,0.60876 -0.257561,0.2406 -0.781431,0.52121 -1.196849,0.64109 -0.219505,0.0633 -0.257921,0.12669 -0.386549,0.63739 -0.07855,0.31189 -0.129319,0.64932 -0.112818,0.74985 0.01649,0.10054 0.0028,0.1828 -0.03034,0.1828 -0.03318,0 -0.10396,0.17327 -0.157286,0.38505 -0.0645,0.25616 -0.183303,0.45901 -0.354922,0.60601 -0.311929,0.26718 -0.354229,0.27373 -0.420451,0.0651 z M 14.60244,285.519 c -0.0256,-0.0668 -0.006,-0.19748 0.0437,-0.29034 0.10653,-0.19906 0.0704,-0.20396 -0.37061,-0.0503 -0.36138,0.12594 -0.68213,0.088 -0.68213,-0.0807 0,-0.0974 0.23658,-0.20209 1.09676,-0.48536 0.17873,-0.0589 0.9099,-0.2472 1.62483,-0.41853 1.19752,-0.28698 1.39261,-0.31153 2.47786,-0.31174 1.45917,-3.1e-4 2.24328,0.1856 1.96341,0.46547 -0.0605,0.0605 -0.19415,0.0557 -0.4506,-0.0161 -0.69923,-0.19577 -3.74457,0.15185 -4.38105,0.5001 -0.0981,0.0537 -0.31985,0.11784 -0.49284,0.14263 -0.27214,0.039 -0.3269,0.0833 -0.40621,0.32843 -0.0963,0.29772 -0.34345,0.42412 -0.42314,0.21644 z m -5.1234132,-0.19514 c -0.02598,-0.0782 -0.189337,-0.51414 -0.363038,-0.96877 -0.173698,-0.45464 -0.315815,-0.89788 -0.315815,-0.985 0,-0.0871 -0.0554,-0.31541 -0.123108,-0.50732 -0.118394,-0.33557 -0.116064,-0.35651 0.06093,-0.54693 0.24717,-0.26593 0.953152,-0.66645 1.17639,-0.6674 0.2296432,-9.2e-4 0.2846952,0.10842 0.5516092,1.096 0.120762,0.44683 0.367957,1.13368 0.549315,1.52633 0.19687,0.42621 0.29988,0.74284 0.25562,0.7857 -0.14047,0.13604 -1.085218,0.40956 -1.4146052,0.40956 -0.242211,0 -0.342649,-0.0378 -0.3773,-0.14217 z m 1.0787092,-0.39401 c 0.129771,-0.0348 0.162202,-0.0907 0.128991,-0.22231 -0.02441,-0.0967 -0.06585,-0.19406 -0.09211,-0.21641 -0.02625,-0.0223 -0.08937,-0.11373 -0.140229,-0.2031 -0.05087,-0.0894 -0.151406,-0.1574 -0.223417,-0.1512 -0.07201,0.006 -0.130928,-0.0395 -0.130928,-0.10155 0,-0.0621 -0.05142,-0.11284 -0.1142592,-0.11284 -0.07426,0 -0.09938,-0.0569 -0.07176,-0.16248 0.02337,-0.0894 0.0073,-0.16248 -0.0358,-0.16248 -0.04306,0 -0.162592,-0.0731 -0.265631,-0.16249 -0.113499,-0.0984 -0.144018,-0.16247 -0.07742,-0.16247 0.08754,0 0.08938,-0.0205 0.0091,-0.10088 -0.08033,-0.0803 -0.116469,-0.0762 -0.177484,0.0203 -0.06501,0.10282 -0.0768,0.0996 -0.07786,-0.021 -6.15e-4,-0.0782 -0.04171,-0.14218 -0.09118,-0.14218 -0.04946,0 -0.06989,0.0523 -0.04538,0.11609 0.0245,0.0639 0.06973,0.25579 0.100514,0.42652 0.07136,0.39579 0.486228,1.29817 0.621928,1.35276 0.1445902,0.0582 0.4771402,0.0609 0.6829872,0.006 z m 12.419074,0.097 c -0.26877,-0.11897 -0.60931,-0.5349 -0.60931,-0.7442 0,-0.0736 0.0457,-0.11636 0.10155,-0.095 0.0558,0.0214 0.31154,0.10501 0.56819,0.18585 l 0.46664,0.14699 0.54888,-0.37533 c 0.6625,-0.45303 0.95121,-0.75584 1.34292,-1.40851 0.42792,-0.71301 0.47693,-0.87597 0.53492,-1.77863 0.0432,-0.67273 0.0757,-0.81602 0.18981,-0.83781 0.20334,-0.0388 0.35177,0.54463 0.33692,1.32437 -0.009,0.49604 -0.0767,0.8437 -0.2841,1.46828 -0.23221,0.69933 -0.33715,0.89161 -0.72157,1.32221 -0.34162,0.38265 -0.56639,0.55178 -0.93428,0.703 -0.54229,0.22292 -1.15741,0.25836 -1.54057,0.0888 z m -2.72159,-2.17495 c 0,-0.0636 0.0433,-0.15882 0.0961,-0.2117 0.0529,-0.0529 0.0682,-0.1241 0.034,-0.15829 -0.0342,-0.0342 -0.11834,0.0109 -0.18702,0.1002 -0.11994,0.15595 -0.12282,0.15354 -0.073,-0.0611 0.0297,-0.12789 0.0175,-0.22341 -0.0284,-0.22341 -0.0441,0 -0.0606,-0.0511 -0.0366,-0.11365 0.0507,-0.13212 -0.0955,-0.25157 -0.16676,-0.13626 -0.0303,0.049 -0.1374,0.0466 -0.28986,-0.007 -0.13301,-0.0464 -0.22128,-0.11756 -0.19616,-0.1582 0.0251,-0.0407 -0.0145,-0.097 -0.0881,-0.12526 -0.10696,-0.041 -0.11207,-0.0651 -0.0254,-0.12004 0.0811,-0.0514 0.0828,-0.069 0.007,-0.0699 -0.0559,-6.1e-4 -0.17467,-0.0744 -0.26404,-0.16372 -0.12637,-0.12638 -0.1354,-0.16249 -0.0406,-0.16249 0.067,0 0.12187,-0.0366 0.12187,-0.0812 0,-0.0447 -0.0548,-0.0812 -0.12187,-0.0812 -0.067,0 -0.12186,-0.0558 -0.12186,-0.12395 0,-0.11064 0.0262,-0.11041 0.24373,0.002 0.25642,0.1326 0.33207,0.0526 0.11816,-0.12493 -0.0691,-0.0573 -0.10676,-0.15318 -0.0838,-0.21305 0.023,-0.0599 0.006,-0.10885 -0.0369,-0.10885 -0.0433,0 -0.0787,0.0366 -0.0787,0.0813 0,0.0447 -0.0365,0.0812 -0.0812,0.0812 -0.0447,0 -0.0812,-0.0548 -0.0812,-0.12186 0,-0.067 0.0457,-0.12243 0.10155,-0.12311 0.0694,-9.2e-4 0.0735,-0.0202 0.0132,-0.0609 -0.12736,-0.086 -0.19439,-0.41226 -0.0917,-0.44648 0.16801,-0.056 -0.0352,-0.22252 -0.27153,-0.22252 -0.29155,0 -0.31542,-0.14019 -0.0358,-0.21036 0.1117,-0.028 0.2031,-0.0806 0.2031,-0.11677 0,-0.0362 0.0224,-0.12403 0.0497,-0.19521 0.0354,-0.0922 0.0143,-0.11587 -0.0732,-0.0823 -0.0676,0.0259 -0.1426,0.1225 -0.16668,0.21458 -0.0322,0.12326 -0.0825,0.15195 -0.1908,0.1088 -0.25845,-0.10305 -0.51942,-0.10652 -0.619,-0.008 -0.13241,0.13069 -0.38888,0.23781 -0.58377,0.24384 -0.0891,0.003 -0.16227,0.0568 -0.16248,0.1201 -2.4e-4,0.0633 -0.0519,0.13226 -0.11489,0.15325 -0.0787,0.0263 -0.0986,-0.003 -0.0635,-0.0948 0.0281,-0.0731 0.0195,-0.13295 -0.019,-0.13295 -0.0385,0 -0.0919,0.0572 -0.11875,0.12702 -0.0268,0.0699 -0.0824,0.10618 -0.12361,0.0807 -0.0412,-0.0255 -0.0898,-0.002 -0.10793,0.0529 -0.0193,0.058 -0.20628,0.10551 -0.45042,0.11445 -0.25467,0.009 -0.50577,0.0755 -0.64413,0.16963 -0.47479,0.32313 -1.21432,0.66333 -1.52662,0.70225 -0.3819,0.0476 -0.69866,0.13302 -0.81241,0.21905 -0.12354,0.0934 -1.44732,0.48378 -1.64064,0.48378 -0.0934,0 -0.19296,-0.0601 -0.22114,-0.13349 -0.0599,-0.15599 -0.0778,-0.13468 0.25726,-0.30509 0.14521,-0.0739 0.26445,-0.16076 0.26496,-0.19313 6.2e-4,-0.0324 0.13761,-0.11969 0.30466,-0.19406 0.16705,-0.0744 0.47637,-0.21425 0.68739,-0.31083 0.21102,-0.0966 0.42678,-0.14896 0.47947,-0.1164 0.0529,0.0327 0.13945,-6.1e-4 0.19333,-0.0742 0.0537,-0.0734 0.33144,-0.22239 0.6173,-0.33117 0.70975,-0.27006 2.28641,-1.02276 2.38736,-1.13974 0.0452,-0.0524 0.22842,-0.20155 0.40715,-0.3315 0.17873,-0.12995 0.75488,-0.61691 1.28033,-1.08213 0.82369,-0.72928 0.99052,-0.92001 1.21049,-1.38392 0.70473,-1.48625 1.96505,-2.39072 3.3132,-2.37775 1.07953,0.0104 1.44812,0.33555 2.26959,2.00216 0.27128,0.55039 0.43138,1.52171 0.22221,1.34811 -0.0643,-0.0533 -0.21957,-0.33278 -0.34513,-0.62099 -0.12556,-0.28821 -0.25671,-0.52402 -0.29145,-0.52402 -0.0347,0 -0.0632,-0.0676 -0.0632,-0.15029 0,-0.0827 -0.10639,-0.29716 -0.23643,-0.47666 -0.55308,-0.76352 -1.58148,-0.88232 -2.72887,-0.31525 -0.72689,0.35926 -0.9764,0.59696 -1.34003,1.27663 -0.24437,0.45677 -0.28121,0.60579 -0.30895,1.24978 -0.0327,0.76016 0.18665,2.40446 0.439,3.29028 0.16774,0.58884 0.56008,1.28745 0.87477,1.55765 0.30782,0.2643 0.25713,0.33982 -0.16453,0.24508 -0.22778,-0.0512 -0.34474,-0.0429 -0.41204,0.0291 -0.0517,0.0553 -0.077,0.11757 -0.0563,0.13831 0.0207,0.0207 -0.018,0.0839 -0.0861,0.14046 -0.10107,0.0839 -0.12383,0.0815 -0.12383,-0.0128 z m -0.85088,-1.59471 c -0.025,-0.025 -0.0906,-5e-5 -0.14568,0.0555 -0.0796,0.0802 -0.0703,0.0896 0.0455,0.0455 0.0801,-0.0305 0.12521,-0.0759 0.1002,-0.10095 z m -0.36774,-1.71697 c 0,-0.042 -0.0366,-0.099 -0.0812,-0.12665 -0.0447,-0.0276 -0.0812,0.007 -0.0812,0.0764 0,0.0697 0.0366,0.12666 0.0812,0.12666 0.0447,0 0.0812,-0.0344 0.0812,-0.0764 z m -1.54359,-0.16727 c 0,-0.0447 -0.0387,-0.0813 -0.086,-0.0813 -0.0473,0 -0.0634,0.0366 -0.0358,0.0813 0.0276,0.0447 0.0663,0.0812 0.086,0.0812 0.0197,0 0.0358,-0.0366 0.0358,-0.0812 z m 0.89366,-0.24373 c 0,-0.0447 -0.0366,-0.0812 -0.0812,-0.0812 -0.0447,0 -0.0812,0.0366 -0.0812,0.0812 0,0.0447 0.0366,0.0812 0.0812,0.0812 0.0447,0 0.0812,-0.0366 0.0812,-0.0812 z m 1.29986,3.33569 c 0,-0.042 0.0361,-0.0988 0.0803,-0.12608 0.0461,-0.0285 0.0597,0.004 0.0319,0.0764 -0.054,0.14074 -0.11224,0.16649 -0.11224,0.0496 z m -1.04331,-1.38589 c 0,-0.11171 0.0185,-0.15741 0.041,-0.10156 0.0225,0.0559 0.0225,0.14725 0,0.20311 -0.0225,0.0559 -0.041,0.0102 -0.041,-0.10155 z m -1.23145,-0.64317 c 0,-0.0856 -0.0457,-0.17415 -0.10155,-0.19669 -0.0692,-0.0279 -0.0627,-0.0426 0.0203,-0.0461 0.067,-0.003 0.17669,0.0303 0.24372,0.0736 0.094,0.0608 0.0967,0.079 0.0116,0.08 -0.0644,6.1e-4 -0.0908,0.0519 -0.0635,0.1231 0.0257,0.067 0.0114,0.12187 -0.0319,0.12187 -0.0433,0 -0.0787,-0.0701 -0.0787,-0.15572 z m 4.4797,-0.0278 c -0.15401,-0.154 -0.10688,-0.27376 0.19978,-0.50766 0.25456,-0.19417 0.28602,-0.25514 0.24287,-0.47085 -0.0679,-0.3396 -0.0833,-0.34562 -0.45402,-0.17844 -0.26727,0.12053 -0.36447,0.13 -0.53528,0.0522 -0.33205,-0.15129 -0.17319,-0.32797 0.55075,-0.61253 0.24428,-0.096 0.31593,-0.17751 0.38648,-0.43952 0.0955,-0.35471 0.20613,-0.47844 0.45103,-0.50449 0.27513,-0.0293 0.345,-0.005 0.59141,0.20194 0.21116,0.17768 0.255,0.29803 0.38511,1.05707 l 0.14682,0.85656 -0.1838,0.19564 c -0.10108,0.10761 -0.29598,0.24211 -0.43309,0.29891 -0.22687,0.094 -0.25994,0.0872 -0.36748,-0.0747 -0.15041,-0.22654 -0.23724,-0.22358 -0.59614,0.0203 -0.21849,0.14847 -0.31506,0.175 -0.38444,0.10562 z m -4.0735,-0.10078 c 0,-0.067 -0.0426,-0.12186 -0.0948,-0.12186 -0.0521,0 -0.0713,-0.0235 -0.0426,-0.0522 0.0605,-0.0605 0.29985,0.11887 0.29985,0.22463 0,0.0392 -0.0366,0.0713 -0.0812,0.0713 -0.0447,0 -0.0813,-0.0548 -0.0813,-0.12186 z m -0.44625,-0.28342 c -0.0285,-0.046 0.004,-0.0597 0.0764,-0.0319 0.14074,0.054 0.16649,0.11224 0.0496,0.11224 -0.042,0 -0.0988,-0.0361 -0.12608,-0.0803 z"
       id="path4498"
       inkscape:connector-curvature="0" />
  </g>
</svg>
